<?xml version="1.0" encoding="utf-8"?>
<!-- Generator: Adobe Illustrator 22.1.0, SVG Export Plug-In . SVG Version: 6.00 Build 0)  -->
<svg version="1.1" id="Слой_1" xmlns="http://www.w3.org/2000/svg" xmlns:xlink="http://www.w3.org/1999/xlink" x="0px" y="0px"
	 viewBox="0 0 579.5 468" style="enable-background:new 0 0 579.5 468;" xml:space="preserve">
<style type="text/css">
	.st0{fill:#335252;}
</style>
<g>
	<path class="st0" d="M341.1,189.2c19.7,1,40.1,3.4,59.5,11.2c27.4,11,45.7,30.2,52.5,59.2c3.2,13.4,3.7,27.2,1.4,41.1
		c-2,12.5-4.9,24.7-9.5,36.5c-5,12.7-11.6,24.5-19.3,35.7c-16.6,24-37.6,43.5-62.6,58.3c-14.8,8.8-30.8,15-47.6,19.6
		c-18.8,5.1-38,8.2-57.2,10.8c-16.5,2.2-33,3.9-49.7,4.1c-5.8,0.1-11.6,0.8-17.3,1.6c-4.2,0.5-8.1-1.7-12.5-0.8
		c-13.6,2.8-27.5,1.2-41.2,1.4c-2.9,0-3.8-0.7-2.7-3.8c4.9-13,9.5-26.1,14.3-39.1c4.4-12.1,9-24.2,13.2-36.4c1.1-3.1,3-5.9,3.5-9.3
		c0.3-2,2.1-2.6,4.3-2.5c28.7,2.5,57.1,0.8,85.5-4.4c15.7-2.9,31.1-6.9,45.8-12.9c15.3-6.3,29.2-14.8,39.7-28
		c3.9-4.9,7.5-10.1,10.9-15.3c4.7-7.1,1.6-15-2.3-21.5c-5.5-8.9-14.9-12.5-24.7-15.1c-16.8-4.5-34-3.8-51.1-3.6
		c-18,0.3-35.8,2.8-53.5,5.6c-5.1,0.8-10.3,1.2-15.3,2.2c-4.3,0.9-4.7-1.1-3.7-4.3c2.2-7,4.6-13.9,6.9-20.8
		c4.4-12.8,9-25.6,13.4-38.5c6-17.2,11.9-34.4,18-51.6c3.3-9.2,3.4-9,13.6-8.5c18.3,0.8,36.6,1.2,54.9,2.2
		c8.3,0.4,16.6,1.1,24.9,1.2c2.5,0,3.3,1.2,2.3,3.5c-2.3,5.7-4.5,11.4-6.8,17c-1.6,3.8-0.9,5.1,3.2,5.2
		C334.5,189.2,337.4,189.2,341.1,189.2z"/>
	<path class="st0" d="M363.5,146.6c-17.2,0-34.4,0.9-51.5-0.2c-25.9-1.8-51.8-2.1-77.7-3.9c-38.1-2.6-76.2-1.7-114.2,2.2
		c-12.9,1.3-25.8,2.9-38.4,5.8c-23.2,5.4-45.5,13-64.3,28.6c-0.9,0.7-1.8,2.4-3.2,1.3c-1-0.8-0.4-2.2-0.2-3.3
		c3.7-20.2,12-38.4,23.3-55.4c15.9-23.9,37.4-41.1,63.3-53.2c23.2-10.9,47.8-16.7,73.2-19.3c27.4-2.7,54.9-1.2,82.3-0.2
		c20.8,0.7,41.6,1.4,62.4,2.5c29.8,1.6,59.5,2.5,89.4,2.5c23.2,0,46.3-1.5,69.2-4.9c31-4.6,60.3-14.3,85.1-34.6
		c5-4.1,9.4-8.7,14.1-13.1c0.7-0.7,1.3-1.7,2.4-1.2c1.2,0.5,0.7,1.8,0.6,2.6c-1.1,7.4-1.8,14.9-3.5,22.2c-4,17-10.5,33.1-20,47.9
		c-12.6,19.6-29,35.1-48.9,47c-16.5,9.9-34.4,16.4-53,20.8c-22.1,5.1-44.6,7.3-67.4,6.8c-7.7-0.2-15.3,0-23,0
		C363.6,147.1,363.6,146.9,363.5,146.6z"/>
	<path class="st0" d="M52.7,466.3c-15.8,0-31.7,0-47.5,0c-5.3,0-6.1-1-4.4-5.7c7.4-21.3,15-42.5,22.5-63.8
		c6.5-18.4,13-36.8,19.5-55.2c7.6-21.5,15.4-43,23-64.6c7.4-21.1,14.7-42.2,22-63.3c5.2-14.9,10.4-29.7,15.5-44.6
		c1-2.7,2.7-4.3,5.7-4.9c16.8-3.3,33.8-5.5,51-5.8c17.5-0.3,35,0.1,52.5-0.1c4.2,0,5.4,1,3.8,5c-5.7,15-11.4,30-16.9,45.1
		c-6.3,17.2-12.4,34.6-18.7,51.8c-6.7,18.4-13.6,36.7-20.3,55c-8.3,22.7-16.5,45.5-24.8,68.2c-7.3,19.9-14.7,39.8-22,59.6
		c-2.2,6.1-4.7,12-6.6,18.2c-1.3,4.1-3.6,5.1-7.7,5.1C83.7,466.2,68.2,466.3,52.7,466.3z"/>
</g>
</svg>
