<svg width="39" height="51" viewBox="0 0 39 51" fill="none" xmlns="http://www.w3.org/2000/svg">
<path d="M7.94662 22.4928V35.4832L1.90735e-06 39.9337V17.922L19.5609 6.85606V15.757L7.94662 22.4928Z" fill="#292D31"/>
<path d="M19.5609 36.2049V28.8677L13.0814 25.2592V32.5965L19.5609 36.2049Z" fill="#292D31"/>
<path d="M31.0534 8.78061L39 13.1108V39.9337L31.0534 35.4833V8.78061Z" fill="#D1DFE1"/>
<path d="M19.5613 15.757V6.85609L15.6492 0L26.1632 5.89383V19.3654L19.5613 15.757Z" fill="#D1DFE1"/>
<path d="M19.5613 28.8677L25.9186 25.2593L19.5613 21.4102L13.0818 25.2593L19.5613 28.8677Z" fill="#D1DFE1"/>
<path d="M39 40.054L19.5613 50.9997L0.00043869 39.9337L7.94706 35.4833L19.6836 42.0988L31.0534 35.4833L39 40.054Z" fill="#155152"/>
<path d="M19.5613 36.205V28.8678L25.9186 25.2593V32.5965L19.5613 36.205Z" fill="#155152"/>
</svg>
