<svg version="1.1" xmlns="http://www.w3.org/2000/svg" xmlns:xlink="http://www.w3.org/1999/xlink">
    
    <symbol id="basket" viewBox="0 0 72.1 72">
        <g>
            <circle cx="19.7" cy="66.5" r="5.5"/>
            <path d="M64.1,46.9H15.8V34.5H61c2.6,0,4.8-1.7,5.4-4.3l5.5-23.4c0.4-1.7,0.1-3.4-1-4.7c-1-1.3-2.6-2.1-4.3-2.1H3.2
		C1.4,0,0,1.4,0,3.2C0,5,1.4,6.4,3.2,6.4h6.2v41.4c0,3,2.5,5.5,5.5,5.5h49.2c1.8,0,3.2-1.4,3.2-3.2C67.3,48.3,65.9,46.9,64.1,46.9z
		 M15.8,6.4h49.7l-5.2,21.8H15.8V6.4z"/>
            <circle cx="57.2" cy="66.5" r="5.5"/>
        </g>
    </symbol>

    <symbol id="d1" viewBox="0 0 78.29 80.99" >
        <path d="M78,24.77a1.35,1.35,0,0,0-1-.47H41.78A16.2,16.2,0,1,0,21.66,41.35L18.92,57.81a.93.93,0,0,0,0,.23v5.4a1.34,1.34,0,0,0,1.35,1.35H41.47l-2,8.1H35.1a1.34,1.34,0,0,0-1.21.75l-2.33,4.65H28.35V81H63.44v-2.7H60.23l-2.32-4.65a1.36,1.36,0,0,0-1.22-.75H52.35l-2-8.1H71.54a1.34,1.34,0,0,0,1.35-1.35V58.15l5.38-32.28A1.34,1.34,0,0,0,78,24.77ZM74.45,32.4H65l.9-5.4h9.41ZM61,56.69l.9-5.4H71.3l-.9,5.4ZM25.44,35.1h9.41L34,40.49H24.54Zm.45-2.7.9-5.4H36.2l-.9,5.4ZM52.44,27H63.2l-.9,5.4H51.54Zm9.41,8.1L61,40.49H50.19l.9-5.39ZM49.74,43.19H60.5l-.9,5.4H48.84Zm-3.64,5.4H35.34l.9-5.4H47Zm1.35-8.1H36.69l.9-5.39H48.35Zm-23.36,2.7H33.5l-.9,5.4H23.19Zm8.06,8.1-.9,5.4H21.84l.9-5.4Zm2.74,0H45.65l-.9,5.4H34Zm13.5,0H59.15l-.9,5.4H47.49Zm14-2.7.9-5.4h9.41l-.9,5.4Zm1.35-8.1.9-5.39H74l-.9,5.39ZM49.7,27l-.9,5.4H38l.9-5.4ZM12.15,25.65A13.5,13.5,0,0,1,39.08,24.3H25.65a1.34,1.34,0,0,0-1.33,1.12L22.11,38.67A13.43,13.43,0,0,1,12.15,25.65ZM57.21,78.29H34.58l1.35-2.7H55.86Zm-7.65-5.4H42.22l2-8.1h3.29Zm-28-10.8v-2.7H70.19v2.7Z"/><path d="M24.3,0H27V5.4H24.3Z"/><path d="M11.65,4.11,14,2.76l2.7,4.68L14.35,8.79Z"/><path d="M2.76,14l1.35-2.34,4.68,2.7L7.44,16.69Z"/><path d="M0,24.3H5.4V27H0Z"/><path d="M2.76,37.3l4.68-2.7,1.35,2.34-4.68,2.7Z"/><path d="M11.65,47.18l2.7-4.67,2.34,1.35L14,48.53Z"/><path d="M42.51,14.35l4.67-2.7L48.53,14l-4.67,2.7Z"/><path d="M34.6,7.44l2.7-4.68,2.34,1.35-2.7,4.68Z"/>
    </symbol>

    <symbol id="d24" viewBox="0 0 44.29 79.85" >
        <path d="M37.66,32.78,20.84,16a1.26,1.26,0,0,0-.88-.37,1.14,1.14,0,0,1-1.25-1.24,1.23,1.23,0,0,0-.19-.63h.82a1.25,1.25,0,0,0,1.25-1.24V5.61a1.08,1.08,0,0,0-.07-.31,1.19,1.19,0,0,0,0-.7L19.27.85A1.24,1.24,0,0,0,18.09,0H5.61A1.25,1.25,0,0,0,4.43.85L3.18,4.6a1.19,1.19,0,0,0,0,.7,1.55,1.55,0,0,0-.06.31v6.87a1.25,1.25,0,0,0,1.25,1.24h.81a1.23,1.23,0,0,0-.19.63,1.14,1.14,0,0,1-1.25,1.24A3.64,3.64,0,0,0,0,19.34v53c0,5.92,4.9,7.49,7.49,7.49H36.8c2.59,0,7.49-1.57,7.49-7.49V44.91C44.29,39,38.18,33.25,37.66,32.78Zm-32-21.55V6.86H18.09v4.37ZM17.19,2.5l.62,1.87H5.89L6.51,2.5Zm24.6,69.86c0,4.81-4.48,5-5,5H7.49c-.51,0-5-.18-5-5v-53a1.14,1.14,0,0,1,1.24-1.25,3.64,3.64,0,0,0,3.75-3.74,1.24,1.24,0,0,0-.2-.63h9.12a1.23,1.23,0,0,0-.19.63,3.64,3.64,0,0,0,3.19,3.71L35.92,34.57l0,0c.06,0,5.82,5.32,5.82,10.3Z"/><path d="M32.07,45.28l-10-10a1.22,1.22,0,0,0-.88-.37H13.72a4.85,4.85,0,0,0-5,5V69.24a4.85,4.85,0,0,0,5,5H31.19a4.85,4.85,0,0,0,5-5V53C36.18,49.16,32.21,45.41,32.07,45.28Zm1.61,24a2.35,2.35,0,0,1-2.49,2.5H13.73a2.36,2.36,0,0,1-2.5-2.5V39.93a2.34,2.34,0,0,1,2.49-2.5h7l9.65,9.64c.93.87,3.34,3.63,3.34,6Z"/><path d="M29.77,52.32,26,56l-1.86-1.86,3.65-3.65L26,48.76l-3.55,3.56L18.9,48.76l-1.76,1.77,3.66,3.66L19,56.05l-3.81-3.73L13.39,54.1l3.55,3.48-3.55,3.55,1.77,1.77,3.55-3.56,2.1,2.1-3.67,3.61,1.74,1.78,3.58-3.51L26,66.83l1.75-1.78-3.65-3.59,2.09-2.1,3.53,3.54,1.77-1.77L28,57.58l3.55-3.48Zm-7.3,7.26-1.76-1.76,1.76-1.77,1.77,1.77Z"/>
    </symbol>

    <symbol id="d9" viewBox="0 0 88.41 55.99" >
        <path d="M86.94,0H72.2a1.34,1.34,0,0,0-.4.06L51.37,5.89H50.1V4.42A4.42,4.42,0,0,0,45.68,0h-3a4.42,4.42,0,0,0-4.42,4.42V5.89H36.84a1.48,1.48,0,0,0-1.48,1.48v5.89a1.47,1.47,0,0,0,1.48,1.47h1.47v5.9H28v2.95H22.1V28H0V48.63H22.1v4.42H28V56H60.41V53.05h5.9V48.63h22.1V28H66.31V23.58h-5.9V20.63H50.1v-5.9h1.47a1.44,1.44,0,0,0,.41-.05L72.41,8.84H86.94a1.47,1.47,0,0,0,1.47-1.47V1.47A1.47,1.47,0,0,0,86.94,0ZM22.1,45.68H3V30.94H22.1ZM28,50.1H25.05V26.52H28ZM66.31,30.94H85.46V45.68H66.31Zm-5.9-4.42h3V50.1h-3ZM41.26,4.42A1.47,1.47,0,0,1,42.73,3h3a1.47,1.47,0,0,1,1.47,1.47V5.89H41.26ZM57.47,53.05H30.94V44.2H57.47Zm0-11.79H30.94v-5.9H57.47Zm0-17.68v8.84H30.94V23.58ZM41.26,20.63v-5.9h5.89v5.9ZM85.46,5.89H72.2a1.34,1.34,0,0,0-.4.06L51.37,11.79H38.31V8.84H51.57A1.92,1.92,0,0,0,52,8.79L72.41,3h13Z"/><rect x="51.57" y="47.15" width="2.95" height="2.95"/><rect x="45.68" y="47.15" width="2.95" height="2.95"/>
    </symbol>

    <symbol id="d21" viewBox="0 0 81.91 70.99" >
        <path d="M68.26,0A13.67,13.67,0,0,0,54.68,12.29H1.37A1.36,1.36,0,0,0,0,13.65v56A1.36,1.36,0,0,0,1.37,71H68.26A13.66,13.66,0,0,0,81.91,57.34V12.29a1.29,1.29,0,0,0-.16-.61A13.65,13.65,0,0,0,68.26,0ZM2.73,15H54.61V53.24s0,0,0,0a1,1,0,0,0,0,.17.9.9,0,0,0,.06.22l0,.13.09.14a1.18,1.18,0,0,0,.13.18l.09.11a.71.71,0,0,0,.14.1l.09.09,6.83,4.09.12.05.12.06a1.39,1.39,0,0,0,.46.08h0a1.27,1.27,0,0,0,.47-.09l.1,0a1.42,1.42,0,0,0,.38-.26s0,0,0,0A2.11,2.11,0,0,0,64,58L64,58a1.06,1.06,0,0,0,.09-.25.87.87,0,0,0,0-.28s0-.05,0-.09a4.1,4.1,0,0,1,8.19,0,4.33,4.33,0,0,1-2.95,4.1H2.73ZM68.26,68.26H2.73V64.17h66.9a1.26,1.26,0,0,0,.33,0,1.15,1.15,0,0,0,.17-.06h0a7,7,0,0,0,4.92-6.71,6.81,6.81,0,0,0-13.27-2.18l-4.1-2.46a11.93,11.93,0,0,1,10.54-6.28,10.92,10.92,0,0,1,0,21.84ZM79.18,49.18a13.63,13.63,0,0,0-10.92-5.49,15.08,15.08,0,0,0-10.92,4.78V13.65a10.92,10.92,0,0,1,21.84,0Z"/><rect x="10.92" y="20.48" width="2.73" height="2.73"/><rect x="19.11" y="20.48" width="2.73" height="2.73"/><rect x="27.3" y="20.48" width="2.73" height="2.73"/><rect x="35.5" y="20.48" width="2.73" height="2.73"/><rect x="43.69" y="20.48" width="2.73" height="2.73"/><rect x="15.02" y="28.67" width="2.73" height="2.73"/><rect x="23.21" y="28.67" width="2.73" height="2.73"/><rect x="31.4" y="28.67" width="2.73" height="2.73"/><rect x="39.59" y="28.67" width="2.73" height="2.73"/><rect x="10.92" y="36.86" width="2.73" height="2.73"/><rect x="19.11" y="36.86" width="2.73" height="2.73"/><rect x="27.3" y="36.86" width="2.73" height="2.73"/><rect x="35.5" y="36.86" width="2.73" height="2.73"/><rect x="43.69" y="36.86" width="2.73" height="2.73"/><rect x="15.02" y="45.05" width="2.73" height="2.73"/><rect x="23.21" y="45.05" width="2.73" height="2.73"/><rect x="31.4" y="45.05" width="2.73" height="2.73"/><rect x="39.59" y="45.05" width="2.73" height="2.73"/><rect x="10.92" y="53.24" width="2.73" height="2.73"/><rect x="19.11" y="53.24" width="2.73" height="2.73"/><rect x="27.3" y="53.24" width="2.73" height="2.73"/><rect x="35.5" y="53.24" width="2.73" height="2.73"/><rect x="43.69" y="53.24" width="2.73" height="2.73"/>
    </symbol>

    <symbol id="d10" viewBox="0 0 94.9 59.09" >
        <path d="M90.42,25V22H94.9V15.4H90.42V12.09H86.18V9.88H79.57v2.21H74.06V5.44h-6.6v6.65H51.7V5.44H45.1v6.65h-14V3.23H25.75V0H16.29V3.23H10.93v7.86H0v9.45H10.93V39.18H0v9.45H10.93v7.23h5.36v3.23h9.46V55.86h5.36V48.63h14v6.65h6.6V48.63H67.46v6.65h6.6V48.63H90.42v-3H94.9V39.05H90.42v-3.3H74.06V25Zm.06-7.4h2.24v2.24H90.48Zm-87.25.78h-1V13.27h1Zm0,28.09h-1V41.36h1Zm87.25-5.21h2.24v2.23H90.48ZM69.64,7.62h2.24V8.77H69.64Zm0,3.34h2.24v1.13H69.64ZM47.28,7.62h2.24V8.77H47.28Zm0,3.34h2.24v1.13H47.28ZM45.1,14.27H88.24v8.52H31.11V14.27Zm0,21.48h-14V25h14ZM47.28,25h2.24V35.75H47.28Zm4.42,0H67.46V35.75H51.7ZM18.48,2.18h5.09v1H18.48ZM5.41,18.36V13.27h5.52v5.09Zm0,28.09V41.36h5.52v5.09ZM23.57,56.91H18.48v-1h5.09Zm5.36-3.23H13.11V5.41H28.93V53.68Zm20.59-.58H47.28V52h2.24Zm0-3.31H47.28V48.63h2.24ZM71.88,53.1H69.64V52h2.24Zm0-3.31H69.64V48.63h2.24ZM88.24,37.93v8.52H31.11V37.93H88.24ZM71.88,35.75H69.64V25h2.24Z"/><path d="M60.3,21.89a3.36,3.36,0,1,0-3.36-3.36A3.37,3.37,0,0,0,60.3,21.89Zm0-4.53a1.18,1.18,0,1,1-1.18,1.17A1.17,1.17,0,0,1,60.3,17.36Z"/><path d="M60.3,39a3.36,3.36,0,1,0,3.36,3.35A3.36,3.36,0,0,0,60.3,39Zm0,4.53a1.18,1.18,0,1,1,1.18-1.18A1.18,1.18,0,0,1,60.3,43.53Z"/>
    </symbol>

    <symbol id="d4" viewBox="0 0 56.46 76.99" >
        <path d="M52.61,71.86H3.85A3.86,3.86,0,0,1,0,68V3.85A3.86,3.86,0,0,1,3.85,0H52.61a3.86,3.86,0,0,1,3.85,3.85V68A3.86,3.86,0,0,1,52.61,71.86ZM3.85,2.57A1.28,1.28,0,0,0,2.57,3.85V68a1.28,1.28,0,0,0,1.28,1.28H52.61A1.28,1.28,0,0,0,53.89,68V3.85a1.28,1.28,0,0,0-1.28-1.28Z"/><path d="M9,77H6.42a2.57,2.57,0,0,1-2.57-2.57V70.57a1.28,1.28,0,0,1,1.28-1.28h5.14a1.29,1.29,0,0,1,1.28,1.28v3.85A2.57,2.57,0,0,1,9,77ZM6.42,71.86v2.56H9V71.86Z"/><path d="M50,77H47.48a2.57,2.57,0,0,1-2.57-2.57V70.57a1.28,1.28,0,0,1,1.28-1.28h5.14a1.28,1.28,0,0,1,1.28,1.28v3.85A2.57,2.57,0,0,1,50,77Zm-2.56-5.13v2.56H50V71.86Z"/><path d="M48.76,71.86a1.29,1.29,0,0,1-1.27-1.12l-2.27-17A1.29,1.29,0,0,0,44,52.61H12.51a1.28,1.28,0,0,0-1.27,1.11L9,70.74a1.28,1.28,0,1,1-2.54-.33l2.27-17A3.86,3.86,0,0,1,12.51,50H44a3.86,3.86,0,0,1,3.81,3.34l2.27,17a1.28,1.28,0,0,1-1.1,1.44Z"/><path d="M19.25,66.72a5.13,5.13,0,1,1,5.13-5.13A5.14,5.14,0,0,1,19.25,66.72Zm0-7.69a2.57,2.57,0,1,0,2.56,2.56A2.57,2.57,0,0,0,19.25,59Z"/><path d="M19.25,60.31A1.28,1.28,0,0,1,18,59V56.46a1.29,1.29,0,0,1,2.57,0V59A1.28,1.28,0,0,1,19.25,60.31Z"/><path d="M37.21,66.72a5.13,5.13,0,1,1,5.13-5.13A5.13,5.13,0,0,1,37.21,66.72Zm0-7.69a2.57,2.57,0,1,0,2.57,2.56A2.56,2.56,0,0,0,37.21,59Z"/><path d="M37.21,60.31A1.28,1.28,0,0,1,35.93,59V56.46a1.29,1.29,0,0,1,2.57,0V59A1.28,1.28,0,0,1,37.21,60.31Z"/><path d="M28.27,37.21A10.62,10.62,0,0,1,18,26.3c0-5.08,8.31-15.65,9.26-16.84a1.34,1.34,0,0,1,2,0c.95,1.19,9.27,11.76,9.27,16.88A10.6,10.6,0,0,1,28.27,37.21Zm0-24.85c-2.81,3.71-7.7,10.82-7.7,14a8,8,0,0,0,7.74,8.31,8,8,0,0,0,7.66-8.27C35.93,23.19,31,16.08,28.23,12.36Z"/><path d="M28.23,37.21c-2.83,0-5.13-2.75-5.13-6.12.18-2.13,2.88-6.76,4-8.66a1.29,1.29,0,0,1,1.1-.62h0a1.28,1.28,0,0,1,1.09.62c1.16,1.91,3.86,6.56,4,8.61C33.36,34.49,31.06,37.21,28.23,37.21Zm0-11.58c-1.79,3.13-2.52,5-2.57,5.57,0,1.82,1.18,3.45,2.57,3.45s2.56-1.6,2.57-3.5A23.48,23.48,0,0,0,28.23,25.63Z"/><rect x="1.28" y="42.34" width="53.89" height="2.57"/>
    </symbol>

    <symbol id="d12" viewBox="0 0 84.46 68.81" >
        <path d="M84.46,48h-8.1V39.59H65.79V48H63.15V20.84h2.64V26.9H76.36V20.84h8.1V8.38h-8.1V0H65.79V8.38H54.35V0H43.79V8.38H40V0H29.4V8.38H17.13V0H6.57V8.38H0V20.84H6.57V26.9H17.13V20.84h3.06V48H17.13V39.59H6.57V48H0V60.43H6.57v8.38H17.13V60.43H29.4v8.38H40V60.43h3.83v8.38H54.35V60.43H65.79v8.38H76.36V60.43h8.1ZM68,41.77h6.21V48H68Zm6.21-17H68V20.84h6.21ZM68,2.18h6.21v6.2H68Zm-22,0h6.2v6.2H46Zm-14.39,0h6.2v6.2h-6.2Zm-22.83,0H15v6.2H8.75ZM15,24.73H8.75V20.84H15ZM2.18,18.66v-8.1h80.1v8.1ZM61,20.84V48h-1.8V20.84ZM43.79,39.59V48H40V39.59H29.4V48H26.34V20.84H29.4V26.9H40V20.84h3.83V26.9H54.35V20.84H57V48H54.35V39.59Zm8.38,2.18V48H46v-6.2Zm-14.39,0V48h-6.2v-6.2Zm-6.2-17V20.84h6.2v3.89Zm14.39,0V20.84h6.2v3.89ZM24.16,20.84V48H22.37V20.84ZM8.75,41.77H15V48H8.75ZM15,66.63H8.75v-6.2H15Zm22.83,0h-6.2v-6.2h6.2Zm14.39,0H46v-6.2h6.2Zm22,0H68v-6.2h6.21Zm8.1-8.38H2.18v-8.1h80.1Z"/>
    </symbol>

    <symbol id="d6" viewBox="0 0 87.03 89.83" >
        <path d="M21.63,19.75H40.52a4.45,4.45,0,0,0,4.65-4.19c0-2.18-.56-3.61-1.59-4.05a4.31,4.31,0,0,1-.14-1.13c0-.39.73-1,1.83-1H50.9a4.65,4.65,0,0,0,4.65-4.65V4.65A4.66,4.66,0,0,0,50.9,0H27.11a4.65,4.65,0,0,0-4.65,4.65v.09c0,2.61,1.63,4.65,3.71,4.65a.94.94,0,0,1,.9,1c0,.39-.73,1-1.83,1H21.63A4.45,4.45,0,0,0,17,15.56,4.45,4.45,0,0,0,21.63,19.75Zm8.26-9.37a3.77,3.77,0,0,0-3.72-3.81c-.35,0-.89-.79-.89-1.83V4.65a1.83,1.83,0,0,1,1.83-1.83H50.9a1.83,1.83,0,0,1,1.83,1.83v.09A1.83,1.83,0,0,1,50.9,6.57H45.27c-2.57,0-4.65,1.71-4.65,3.81a4.53,4.53,0,0,0,1.06,3.33,2.27,2.27,0,0,1,.67,1.64v.21c0,.74-.84,1.37-1.83,1.37H21.63c-1,0-1.83-.63-1.83-1.37s.84-1.37,1.83-1.37h3.61C27.81,14.19,29.89,12.48,29.89,10.38Z"/><path d="M53.4,81.4a18.9,18.9,0,1,0-3.11-2.79,1.29,1.29,0,1,0,1.92-1.73A16.23,16.23,0,1,1,54.9,79.3a1.29,1.29,0,0,0-1.8.3,1.3,1.3,0,0,0,.3,1.8Z"/><path d="M82.54,42.22H79.15a1.29,1.29,0,0,0,0,2.58h3.39a1.91,1.91,0,0,1,1.91,1.9V85.34a1.92,1.92,0,0,1-1.91,1.91H30a1.91,1.91,0,0,1-1.9-1.91v-6a1.29,1.29,0,0,0-1.29-1.29,1.09,1.09,0,0,0-.36.06l0-.13H5.22L12.1,66.92H25.53v9a1.29,1.29,0,1,0,2.58,0V46.7A1.9,1.9,0,0,1,30,44.8H75.52a1.29,1.29,0,1,0,0-2.58H45.34v-.65a9.58,9.58,0,0,0-2.09-6l-.1-.12h.16a5.26,5.26,0,0,0,4.78-5.21V26.8a5.24,5.24,0,0,0-5.23-5.24H12.62A5.24,5.24,0,0,0,7.39,26.8v3.43a5.26,5.26,0,0,0,4.78,5.21h.16l-.1.12a9.58,9.58,0,0,0-2.09,6V64.25a.81.81,0,0,0,0,.15v.16L0,80.93H25.53v4.41A4.49,4.49,0,0,0,30,89.83H82.54A4.49,4.49,0,0,0,87,85.34V46.7A4.49,4.49,0,0,0,82.54,42.22ZM42.86,32.56H12.62a2.33,2.33,0,0,1-2.33-2.33V26.8a2.33,2.33,0,0,1,2.33-2.33H42.86a2.33,2.33,0,0,1,2.33,2.33v3.43A2.33,2.33,0,0,1,42.86,32.56Zm-.42,9.66H30a4.49,4.49,0,0,0-4.48,4.48V64H13V41.57a6.77,6.77,0,0,1,3.82-6.1H38.62a6.75,6.75,0,0,1,3.82,6.1Z"/><path d="M50.26,64.54A1.29,1.29,0,0,0,49,65.83a7,7,0,0,0,9.82,6.38l3.09-1.37a5.44,5.44,0,0,0,1,.4v8.9a1.29,1.29,0,0,0,1.29,1.29,7,7,0,0,0,6.39-9.82l-1.37-3.1a5.8,5.8,0,0,0,.4-1h8.89a1.29,1.29,0,0,0,1.29-1.29A7,7,0,0,0,70,59.83L66.87,61.2a5.18,5.18,0,0,0-1-.4V51.91a1.29,1.29,0,0,0-1.29-1.29,7,7,0,0,0-6.39,9.81l1.38,3.1a5.35,5.35,0,0,0-.4,1Zm1.49,2.58h7.31a5.54,5.54,0,0,0,.74,1.82l-2.06.91h0a4.4,4.4,0,0,1-6-2.73ZM67.3,70.6l.91,2.06a4.41,4.41,0,0,1-2.74,6V71.34A5.73,5.73,0,0,0,67.3,70.6Zm-4-17.21v7.32a5.26,5.26,0,0,0-1.82.74l-.91-2.06a4.4,4.4,0,0,1,2.73-6Zm3.94,12.77a2.81,2.81,0,0,1-.53,1.51,2.84,2.84,0,0,1-2.31,1.2h-.14a2.76,2.76,0,0,1-1.54-.54A2.85,2.85,0,0,1,61.53,66v-.13a2.85,2.85,0,0,1,2.85-2.71h.13a2.87,2.87,0,0,1,1.52.53A2.83,2.83,0,0,1,67.22,66Zm8-3.63A4.39,4.39,0,0,1,77,64.93H69.69A5.51,5.51,0,0,0,69,63.1L71,62.19h0A4.4,4.4,0,0,1,75.2,62.53Z"/><path d="M36.15,71.5a1.29,1.29,0,1,0-2.58,0v1.19a1.29,1.29,0,0,0,2.58,0Z"/><path d="M34.86,74.89a1.29,1.29,0,0,0-1.29,1.29v6.21a1.29,1.29,0,0,0,2.58,0V76.18A1.29,1.29,0,0,0,34.86,74.89Z"/>
    </symbol>

    <symbol id="d37" viewBox="0 0 73.08 67.99" >
        <path d="M63.42,37.15a1.37,1.37,0,0,0-1.37,1.38v4.12H43.55v-1.3l4.14-3.23,4.18,2.51a1.37,1.37,0,0,0,.91.17,1.4,1.4,0,0,0,.82-.43l2-2.25a1.37,1.37,0,0,0-2-1.84l-1.28,1.41-4-2.41a1.38,1.38,0,0,0-1.62.08l-3.23,2.47V31.69h9.1a1.37,1.37,0,0,0,0-2.74H42.18a1.37,1.37,0,0,0-1.37,1.37h0V44a1.37,1.37,0,0,0,1.37,1.37H63.42A1.37,1.37,0,0,0,64.79,44V38.48A1.37,1.37,0,0,0,63.42,37.15Z"/><path d="M63.42,48.11H42.18a1.37,1.37,0,1,0,0,2.74H63.42a1.37,1.37,0,1,0,0-2.74Z"/><path d="M63.42,53.6H42.18a1.37,1.37,0,1,0,0,2.74H63.42a1.37,1.37,0,1,0,0-2.74Z"/><circle cx="24.93" cy="1.37" r="1.37"/><path d="M32.54,4.09a21.55,21.55,0,0,1,12,10.45,1.37,1.37,0,0,0,1.93.14,1.36,1.36,0,0,0,.42-1.42A24.51,24.51,0,0,0,33.49,1.52a1.37,1.37,0,0,0-1,2.57Z"/><path d="M2.7,17a1.37,1.37,0,0,0,1.81-.7h0A22,22,0,0,1,19.76,3.36,1.38,1.38,0,0,0,19.11.69,24.73,24.73,0,0,0,2,15.23,1.37,1.37,0,0,0,2.7,17Z"/><path d="M28.43,46.85a22.83,22.83,0,0,1-17.94-5,23,23,0,0,1-7.71-18A1.38,1.38,0,1,0,0,23.68,25.67,25.67,0,0,0,8.09,43.34a25.66,25.66,0,0,0,20.34,6.25,1.37,1.37,0,1,0,0-2.74Z"/><path d="M72.71,30.13h0L61.13,18.54h0a1.46,1.46,0,0,0-1-.43H36.49a3.94,3.94,0,0,0-3.94,3.94h0v42A3.94,3.94,0,0,0,36.49,68H69.14a3.93,3.93,0,0,0,3.94-3.94v-33A1.35,1.35,0,0,0,72.71,30.13ZM69.14,65.2H36.49A1.19,1.19,0,0,1,35.3,64h0V22a1.19,1.19,0,0,1,1.19-1.19h23L70.34,31.65H59.51V24.93a1.37,1.37,0,1,0-2.74,0V33a1.37,1.37,0,0,0,1.37,1.38h12.2V64A1.2,1.2,0,0,1,69.14,65.2Z"/><path d="M28.43,41.27h0A16.68,16.68,0,1,1,38.12,14.8h0a1.38,1.38,0,0,0,1.93.22,1.36,1.36,0,0,0,.35-1.82A19.38,19.38,0,1,0,28.43,44h0a1.38,1.38,0,1,0,0-2.75Z"/><path d="M26.3,11.16a1.38,1.38,0,0,0-2.75,0h0v13.2l-5.42,5.43A1.37,1.37,0,1,0,20,31.84a1.14,1.14,0,0,0,.11-.11l5.8-5.88a1.37,1.37,0,0,0,.41-1h0Z"/>
    </symbol>

    <symbol id="d34" viewBox="0 0 78.99 78.99" >
        <path d="M39.5,65.83A26.34,26.34,0,1,1,65.83,39.5,26.37,26.37,0,0,1,39.5,65.83Zm0-50A23.7,23.7,0,1,0,63.19,39.5,23.72,23.72,0,0,0,39.5,15.8Z"/><path d="M39.5,79a1.32,1.32,0,0,1-1.32-1.32v-7.9a1.32,1.32,0,0,1,2.63,0v7.9A1.32,1.32,0,0,1,39.5,79Z"/><path d="M39.5,10.53a1.32,1.32,0,0,1-1.32-1.31V1.32a1.32,1.32,0,1,1,2.63,0v7.9A1.31,1.31,0,0,1,39.5,10.53Z"/><path d="M9.22,40.81H1.32a1.32,1.32,0,1,1,0-2.63h7.9a1.32,1.32,0,0,1,0,2.63Z"/><path d="M77.67,40.81h-7.9a1.32,1.32,0,0,1,0-2.63h7.9a1.32,1.32,0,1,1,0,2.63Z"/><path d="M32.91,59.24a1.25,1.25,0,0,1-.59-.14,1.31,1.31,0,0,1-.69-1.47l3.58-15.5H29A1.32,1.32,0,0,1,28,40L45.08,20.2a1.33,1.33,0,0,1,1.59-.31,1.31,1.31,0,0,1,.69,1.47l-3.58,15.5H50A1.32,1.32,0,0,1,51,39L33.91,58.79A1.34,1.34,0,0,1,32.91,59.24ZM31.85,39.5h5a1.31,1.31,0,0,1,1.28,1.61l-2.75,12L47.14,39.5h-5a1.33,1.33,0,0,1-1-.5,1.36,1.36,0,0,1-.26-1.12l2.76-12Z"/><path d="M66.49,67.81a1.3,1.3,0,0,1-.93-.39L60,61.84A1.32,1.32,0,1,1,61.84,60l5.58,5.58a1.3,1.3,0,0,1,0,1.86A1.29,1.29,0,0,1,66.49,67.81Z"/><path d="M18.08,19.4a1.32,1.32,0,0,1-.93-.39l-5.58-5.58a1.32,1.32,0,0,1,1.86-1.86L19,17.15a1.32,1.32,0,0,1-.94,2.25Z"/><path d="M12.5,67.81a1.29,1.29,0,0,1-.93-.39,1.3,1.3,0,0,1,0-1.86L17.15,60A1.32,1.32,0,1,1,19,61.84l-5.59,5.58A1.3,1.3,0,0,1,12.5,67.81Z"/><path d="M60.91,19.4A1.29,1.29,0,0,1,60,19a1.3,1.3,0,0,1,0-1.86l5.58-5.58a1.32,1.32,0,1,1,1.86,1.86L61.84,19A1.32,1.32,0,0,1,60.91,19.4Z"/>
    </symbol>

    <symbol id="d18" viewBox="0 0 94.72 73.99" >
        <path d="M94.72,45.57H90V42.42a1.58,1.58,0,0,0-1.58-1.58H78.94a1.58,1.58,0,0,0-1.58,1.58v3.15h-20l8.92-8.92a5.49,5.49,0,0,0,3.28,1.11,5.64,5.64,0,0,0,4-1.63l1.83-1.83a3.18,3.18,0,0,1,3-.8c2.4.6,4.15.34,5.22-.73L88,28.37a5.56,5.56,0,0,0,0-7.88L69.07,1.57a5.74,5.74,0,0,0-7.88,0L56.79,6c-1.08,1.07-1.31,2.83-.73,5.22a3.15,3.15,0,0,1-.8,3L53.42,16A5.51,5.51,0,0,0,51.8,20a5.61,5.61,0,0,0,1.07,3.27L29.36,45.57h-12V42.42a1.58,1.58,0,0,0-1.58-1.58H6.31a1.58,1.58,0,0,0-1.57,1.58v3.15H0V69.25H4.74v3.16A1.58,1.58,0,0,0,6.31,74h9.48a1.58,1.58,0,0,0,1.58-1.58V69.25h60v3.16A1.58,1.58,0,0,0,78.94,74h9.47A1.58,1.58,0,0,0,90,72.41V69.25h4.73Zm-39-27.31,1.83-1.83a6.24,6.24,0,0,0,1.63-6C58.71,8.69,59,8.22,59,8.22l4.4-4.4a2.39,2.39,0,0,1,1.71-.71,2.35,2.35,0,0,1,1.7.71L85.76,22.73a2.41,2.41,0,0,1,0,3.41l-4.41,4.4a4.53,4.53,0,0,1-2.22-.11,6.38,6.38,0,0,0-6,1.63l-1.83,1.83a2.45,2.45,0,0,1-3.41,0l-.52-.52L56.22,22.21l-.52-.52A2.39,2.39,0,0,1,55,20,2.3,2.3,0,0,1,55.68,18.26ZM3.16,66.1V48.73H4.74V66.1Zm11.05,4.73H7.89V44h6.32V70.83Zm3.16-4.73V48.73h8.82l-2,2a1.58,1.58,0,0,0,0,2.22,1.55,1.55,0,0,0,1.13.46A1.63,1.63,0,0,0,26.4,53l4.73-4.73h0l24-22.75,9,9L52.46,46a2.07,2.07,0,0,0-.28.38l-4.36,4.36a1.56,1.56,0,0,0,0,2.22,1.54,1.54,0,0,0,1.12.46A1.61,1.61,0,0,0,50.06,53l4.28-4.27h23V66.08h-60Zm69.46,4.73H80.51V44h6.32V70.83Zm4.74-4.73H90V48.73h1.58Z"/>
    </symbol>

    <symbol id="d13" viewBox="0 0 89.41 57.99" >
        <path d="M89.41,14.58H70.89V13L59.57,9.38V6.64L55.5,0H35L31,6.4V9H18.52v5.54H0V43.41H18.52v6.3h12.4v1.75L35,58H55.49l4-6.53V49.35l11.36-4.24v-1.7H89.41ZM3.06,40.36V17.64H18.52V40.36Zm26.54,6.3h-8V12.1h8Zm7.22,8.71a10.71,10.71,0,0,1-1.43-5.47,10.17,10.17,0,0,1,1.43-5.32H53.47a10.15,10.15,0,0,1,1.42,5.32,10.83,10.83,0,0,1-1.42,5.47ZM53.46,2.51A10.84,10.84,0,0,1,54.89,8a10,10,0,0,1-1.42,5.27H36.81A10.06,10.06,0,0,1,35.39,8a10.87,10.87,0,0,1,1.43-5.5ZM34.8,43a11.65,11.65,0,0,0-1.34,3V36.47A50.18,50.18,0,0,0,34.8,43ZM33.46,21.54V12.07a11.75,11.75,0,0,0,1.34,3A50,50,0,0,0,33.46,21.54ZM37.11,42a49.84,49.84,0,0,1,0-26H53.17a49.29,49.29,0,0,1,1.72,13,49.68,49.68,0,0,1-1.71,13Zm19.65-4.45v7.93A12.59,12.59,0,0,0,55.59,43,50.5,50.5,0,0,0,56.76,37.54Zm0-17.07a50.35,50.35,0,0,0-1.17-5.4,12.73,12.73,0,0,0,1.17-2.52Zm3.05-7.8,8,2.58V43l-8,3ZM86.35,40.36H70.89V17.64H86.35Z"/>
    </symbol>

    <symbol id="d14" viewBox="0 0 78.44 78.99" >
        <polygon points="37.99 4.82 37.99 16.98 40.52 16.98 40.52 4.82 45.89 10.27 47.71 8.45 39.26 0 30.73 8.45 32.54 10.27 37.99 4.82"/><polygon points="65.8 4.82 65.8 16.98 68.33 16.98 68.33 4.82 73.78 10.27 75.59 8.45 67.06 0 58.61 8.45 60.35 10.27 65.8 4.82"/><polygon points="10.11 4.82 10.11 16.98 12.64 16.98 12.64 4.82 18.09 10.27 19.91 8.45 11.38 0 2.92 8.45 4.66 10.27 10.11 4.82"/><path d="M70.85,63.82H10.11a5.06,5.06,0,0,1,0-10.11H68.33a7.58,7.58,0,0,0,0-15.16H7.58a5.06,5.06,0,0,1,0-10.11H77.17V25.91H7.58A7.47,7.47,0,0,0,0,33.41,7.59,7.59,0,0,0,7.58,41H68.33a5.06,5.06,0,0,1,0,10.11H10.11a7.62,7.62,0,0,0,0,15.24H70.85a5.06,5.06,0,1,1,0,10.11H1.26V79H70.85a7.59,7.59,0,1,0,0-15.17Z"/>
    </symbol>

    <symbol id="d11" viewBox="0 0 79.4 74.11" >
        <path d="M78.08,39.7H70.14A1.33,1.33,0,0,0,68.81,41v1.33H58.23V33.08a1.33,1.33,0,0,0-1.33-1.32H51.61v-4h7.94a1.33,1.33,0,0,0,1.32-1.32V5.29A1.33,1.33,0,0,0,59.55,4H58.23V1.32A1.33,1.33,0,0,0,56.9,0H25.14a1.33,1.33,0,0,0-1.32,1.32V4H22.5a1.33,1.33,0,0,0-1.33,1.32V26.47a1.33,1.33,0,0,0,1.33,1.32h7.94v4h-5.3a1.33,1.33,0,0,0-1.32,1.32v9.27H10.59V41A1.33,1.33,0,0,0,9.26,39.7H1.32A1.33,1.33,0,0,0,0,41V72.78a1.33,1.33,0,0,0,1.32,1.33H9.26a1.34,1.34,0,0,0,1.33-1.33V71.46H68.81v1.32a1.34,1.34,0,0,0,1.33,1.33h7.94a1.33,1.33,0,0,0,1.32-1.33V41A1.33,1.33,0,0,0,78.08,39.7ZM76.75,55.58H71.46V50.29h5.29Zm-5.29,2.65h5.29v5.29H71.46Zm0-15.88h5.29v5.29H71.46V42.35ZM45,25.14V6.62h2.65V25.14Zm-5.29,0V6.62h2.65V25.14Zm-5.29,0V6.62h2.64V25.14Zm-5.3,0V6.62h2.65V25.14ZM50.29,6.62h2.64V25.14H50.29Zm7.94,18.52H55.58V6.62h2.65ZM26.47,2.65H55.58V4H26.47Zm-2.65,4h2.65V25.14H23.82Zm9.26,21.17H49v4H33.08ZM7.94,55.58H2.65V50.29H7.94ZM2.65,58.23H7.94v5.29H2.65Zm0-15.88H7.94v5.29H2.65ZM7.94,71.46H2.65V66.17H7.94v5.29Zm2.65-2.65V45H25.14a1.33,1.33,0,0,0,1.33-1.32V34.41H55.58v9.26A1.32,1.32,0,0,0,56.9,45H68.81V68.81Zm66.16,2.65H71.46V66.17h5.29Z"/>
    </symbol>

    <symbol id="d23" viewBox="0 0 79.68 79.99" >
        <path d="M44.48,16.46H5.23V34.69H44.48Zm-2,16.27H7.19V18.42H42.52Z"/><path d="M39.69,21.82H10v7.51H39.69ZM15.56,27.37H12V23.78h3.59Zm5.54,0H17.51V23.78H21.1Zm5.54,0H23.06V23.78h3.58Zm5.55,0H28.6V23.78h3.59Zm5.54,0H34.15V23.78h3.58Z"/><path d="M9.17,44.93A3.94,3.94,0,1,0,5.23,41,3.95,3.95,0,0,0,9.17,44.93Zm0-5.92a2,2,0,1,1-2,2A2,2,0,0,1,9.17,39Z"/><path d="M16.67,41h0a3.94,3.94,0,1,0,3.94-3.94A3.95,3.95,0,0,0,16.67,41Zm5.92,0h0a2,2,0,1,1-2-2A2,2,0,0,1,22.59,41Z"/><rect x="18.64" y="7.16" width="1.96" height="1.96"/><rect x="22.56" y="7.16" width="12.43" height="1.96"/><rect x="14.72" y="7.16" width="1.96" height="1.96"/><path d="M79.68,49.89a1.14,1.14,0,0,0-1.16-1.16h-8a1.13,1.13,0,0,0-1.15,1.16v.77H67.27A21.87,21.87,0,0,0,49.7,36.16V11.24H44.33L41.27,0H8.43l-3,11.24H0V19.4H2V13.2H47.74V36l-1.2,0A21.87,21.87,0,0,0,25.8,50.66H23.74v-.77a1.21,1.21,0,0,0-1-1.29l-8.17.13a1.16,1.16,0,0,0-.42.08c0-.07,8.54-.15,8.59-.21H2V21.36H0v29.2H13.39l-.07,3.35V66a1.29,1.29,0,0,0,.34.86,1.17,1.17,0,0,0,.85.34h8A1.13,1.13,0,0,0,23.7,66v-.77h2.06A22.22,22.22,0,0,0,31,73.54a21.9,21.9,0,0,0,36.23-8.27h2.06V66a1.28,1.28,0,0,0,.34.86,1.17,1.17,0,0,0,.85.34h8.13l.08,0a1.35,1.35,0,0,0,1-1.3l.05-4ZM7.41,11.24,9.93,2H39.78l2.52,9.28Zm70,39.84v1.71H71.71l-.06-1.71Zm0,4.06v5.65H71.68V55.14Zm0,7.92v1.71H71.64V63.06ZM68.48,58a20.77,20.77,0,0,0-.57-4.83h1.42v9.73l-1.43,0A22.71,22.71,0,0,0,68.48,58Zm-2.35,0A19.56,19.56,0,1,1,60.4,44,19.51,19.51,0,0,1,66.13,57.92Zm-41,4.81-1.42.05V53.05h1.43a22.45,22.45,0,0,0-.58,4.83A21.43,21.43,0,0,0,25.08,62.73Zm-9.37-10V51l5.65.07v1.63Zm0,8V55.06h5.64v5.65Zm0,4.05v-1.7h5.64v1.63Z"/><path d="M38.83,49.31a4.64,4.64,0,0,0-3.37,1.4A4.53,4.53,0,0,0,34.15,54v.9a4.67,4.67,0,0,0,1.36,3.36,4.83,4.83,0,0,0,3.3,1.4H54.16a4.62,4.62,0,0,0,3.32-1.4A4.86,4.86,0,0,0,58.89,55v0l0-1a4.73,4.73,0,0,0-1.43-3.34,4.52,4.52,0,0,0-3.25-1.33Zm0,2.3H54.16A2.36,2.36,0,0,1,56.5,54v.9a2.31,2.31,0,0,1-.69,1.64l0,0a1.73,1.73,0,0,1-1.58.72H38.83a2.49,2.49,0,0,1-2.37-2.37V54A2.38,2.38,0,0,1,38.83,51.61Z"/><path d="M46.5,40.74h0a17.06,17.06,0,0,0-12.14,5,17.29,17.29,0,0,0-5.05,12.13,16.87,16.87,0,0,0,5.05,12.14,17.29,17.29,0,0,0,12.13,5h.16a16.87,16.87,0,0,0,12-5A17.19,17.19,0,0,0,46.5,40.74ZM61.29,57.92A14.71,14.71,0,0,1,57,68.39,14.42,14.42,0,0,1,46.5,72.72h0A14.71,14.71,0,0,1,36,68.39,14.5,14.5,0,0,1,31.7,57.92,14.69,14.69,0,0,1,36,47.46a14.49,14.49,0,0,1,10.31-4.33h.15A14.78,14.78,0,0,1,61.29,57.92Z"/><circle cx="52.87" cy="65.64" r="2.08"/><path d="M44.91,63.59A2.08,2.08,0,1,0,47,65.67,2.08,2.08,0,0,0,44.91,63.59Z"/><path d="M40.08,63.56a2.08,2.08,0,1,0,2.08,2.08A2.08,2.08,0,0,0,40.08,63.56Z"/>
    </symbol>

    <symbol id="d30" viewBox="0 0 79.62 58.99" >
        <path d="M66.73,53.83h9V48.68h.16A3.71,3.71,0,0,0,79.62,45V24.34a3.71,3.71,0,0,0-3.7-3.71H73.34a3.71,3.71,0,0,0-3.71,3.71V36.1h-2.9v-21h7.74v-10H66.73V2.42A2.42,2.42,0,0,0,64.31,0H61.73a2.42,2.42,0,0,0-2.42,2.42v.16H15.15V2.42A2.42,2.42,0,0,0,12.73,0H10.15A2.41,2.41,0,0,0,7.74,2.42V5.16H0v10H7.74V43.84H0v10H7.74v2.74A2.41,2.41,0,0,0,10.15,59h2.58a2.42,2.42,0,0,0,2.42-2.42v-.16H59.31v.16A2.42,2.42,0,0,0,61.73,59h2.58a2.42,2.42,0,0,0,2.42-2.42Zm0-46.42h5.48v5.48H66.73Zm5.16,16.93a1.45,1.45,0,0,1,1.45-1.45h2.58a1.45,1.45,0,0,1,1.45,1.45V45a1.45,1.45,0,0,1-1.45,1.45H73.34A1.45,1.45,0,0,1,71.89,45Zm-5.16,14h2.9v5.48h-2.9Zm0,7.74h3.09l0,.11a3.71,3.71,0,0,0,3.48,2.47h.16v2.9H66.73Zm-59,5.48H2.26V46.1H7.74Zm0-38.69H2.26V7.41H7.74ZM10,56.74V2.26h2.9V56.74Zm49.32-2.58H15.15v-2.9H59.31Zm0-10.32H42.55V46.1H59.31V49H15.15V46.1h24.5V43.84H15.15v-2.9H59.31Zm0-10.31H38.68v2.25H59.31v2.9H15.15v-2.9H35.78V33.53H15.15V30.62H59.31Zm0-5.16H15.15v-2.9H59.31Zm0-10.32H23.21v2.26h36.1v2.9H15.15v-2.9h5.16V18.05H15.15v-2.9H59.31Zm0-10.31H54.16V10h5.15v2.9H15.15V10H51.26V7.74H15.15V4.84H59.31Zm2.26,49V2.26h2.9V56.74Z"/>
    </symbol>

    <symbol id="d25" viewBox="0 0 63.44 79.92" >
        <path d="M59.64,0a3.82,3.82,0,0,0-3.81,3.81V5.23a8.79,8.79,0,0,0-6.12-2.65,1.42,1.42,0,0,0-.2,0H7.38A3.8,3.8,0,0,0,0,3.81V76.12a3.81,3.81,0,0,0,7.61,0V74.66a8.82,8.82,0,0,0,5.87,2.65,1.23,1.23,0,0,0,.46.1H56.07A3.86,3.86,0,0,0,57,78.8a3.72,3.72,0,0,0,2.69,1.12,3.8,3.8,0,0,0,3.8-3.8V3.81A3.81,3.81,0,0,0,59.64,0ZM5.07,76.12a1.27,1.27,0,0,1-2.53,0V73.58H5.07Zm0-5.08H2.54V8.89H5.07Zm0-64.69H2.54V3.81a1.26,1.26,0,0,1,2.52-.05.43.43,0,0,0,0,.05s0,.06,0,.09ZM7.61,8.89H49.42l.1,0a2.51,2.51,0,0,1,0,5,1.5,1.5,0,0,0-.29.06H13.94a8.82,8.82,0,0,0-6.33,2.68ZM7.61,29a8.81,8.81,0,0,0,5.94,2.65,1.23,1.23,0,0,0,.39.08H49.55a2.51,2.51,0,0,1,0,5,1.55,1.55,0,0,0-.31.06H13.94a8.85,8.85,0,0,0-6.33,2.67Zm0,22.82a8.79,8.79,0,0,0,5.9,2.66,1.26,1.26,0,0,0,.43.08H49.57a2.51,2.51,0,0,1,0,5,1.28,1.28,0,0,0-.34.06H13.94a8.82,8.82,0,0,0-6.33,2.68Zm48.22,23H14.29a1.45,1.45,0,0,0-.35-.07,6.32,6.32,0,0,1,0-12.63H49.52a1.32,1.32,0,0,0,.52-.12,5,5,0,0,0-.53-10H14.26a1.65,1.65,0,0,0-.32-.06,6.32,6.32,0,0,1,0-12.63h35.6a1.27,1.27,0,0,0,.51-.12,5,5,0,0,0-.52-10H14.24a1.45,1.45,0,0,0-.3-.06,6.32,6.32,0,0,1,0-12.63H49.52a1.18,1.18,0,0,0,.5-.11,5,5,0,0,0-.31-10,1.42,1.42,0,0,0-.2,0H7.61V5.07H49.37a.66.66,0,0,0,.15,0,6.32,6.32,0,0,1,0,12.63,1.5,1.5,0,0,0-.29.06H13.94a5,5,0,0,0-.49,10,1.16,1.16,0,0,0,.49.1H49.52a6.32,6.32,0,0,1,0,12.63,1.55,1.55,0,0,0-.31.06H13.94a5,5,0,0,0-.5,10,1.18,1.18,0,0,0,.5.11H49.53a6.32,6.32,0,0,1,0,12.63,1.3,1.3,0,0,0-.33.07H13.94a5,5,0,0,0-.51,10,1.26,1.26,0,0,0,.51.11H55.83v1.27Zm0-3.81H14.24a1,1,0,0,0-.3-.06,2.51,2.51,0,0,1,0-5H49.52A1.33,1.33,0,0,0,50,65.9a8.81,8.81,0,0,0,5.87-2.64Zm0-20.18a8.81,8.81,0,0,0-6.31-2.66H14.21a1.18,1.18,0,0,0-.27-.06,2.51,2.51,0,0,1,0-5h35.6a1.16,1.16,0,0,0,.41-.09,8.79,8.79,0,0,0,5.9-2.64V50.88Zm0-22.82a8.82,8.82,0,0,0-6.31-2.67H14.19a2.21,2.21,0,0,0-.25-.05,2.51,2.51,0,1,1,0-5H49.52a1.17,1.17,0,0,0,.37-.08,8.84,8.84,0,0,0,5.94-2.64Zm5.08,48.06a1.27,1.27,0,0,1-2.17.89,1.22,1.22,0,0,1-.35-.81s0,0,0-.06a.76.76,0,0,0,0-.16v-2.4h2.54v2.54Zm0-5.08H58.37V8.91h2.54Zm0-64.67H58.37V3.81a1.27,1.27,0,1,1,2.54,0Z"/>
    </symbol>

    <symbol id="d2" viewBox="0 0 81.06 80.14" >
        <path d="M23.07,6.66a1.58,1.58,0,0,1-1.59-1.58V1.58a1.59,1.59,0,0,1,3.17,0v3.5A1.58,1.58,0,0,1,23.07,6.66Z"/><path d="M5.07,24.71H1.58a1.59,1.59,0,0,1,0-3.17H5.07a1.59,1.59,0,1,1,0,3.17Z"/><path d="M35.79,12a1.63,1.63,0,0,1-1.12-.46,1.58,1.58,0,0,1,0-2.24l2.47-2.48A1.58,1.58,0,1,1,39.38,9l-2.47,2.47A1.58,1.58,0,0,1,35.79,12Z"/><path d="M7.88,39.93a1.57,1.57,0,0,1-1.12-.46,1.59,1.59,0,0,1,0-2.24l2.47-2.47A1.58,1.58,0,1,1,11.46,37L9,39.47A1.58,1.58,0,0,1,7.88,39.93Z"/><path d="M10.34,12a1.59,1.59,0,0,1-1.12-.47L6.75,9A1.59,1.59,0,0,1,9,6.77l2.46,2.48a1.58,1.58,0,0,1,0,2.24A1.61,1.61,0,0,1,10.34,12Z"/><path d="M71.7,64.48a1.55,1.55,0,0,1-.31,0,1.71,1.71,0,0,1-.3-.09,1.43,1.43,0,0,1-.27-.15,1.55,1.55,0,0,1-.24-.19,1.57,1.57,0,0,1-.2-.25,1.17,1.17,0,0,1-.15-.27,2.46,2.46,0,0,1-.09-.29,1.71,1.71,0,0,1,0-.31,1.55,1.55,0,0,1,0-.31c0-.1.06-.2.09-.3a1.17,1.17,0,0,1,.15-.27,1.73,1.73,0,0,1,.44-.44,1.43,1.43,0,0,1,.27-.15c.1,0,.2-.06.3-.09a1.59,1.59,0,0,1,1.89,1.56,1.71,1.71,0,0,1,0,.31,1.4,1.4,0,0,1-.09.29,1.17,1.17,0,0,1-.15.27,1.5,1.5,0,0,1-.19.25A1.63,1.63,0,0,1,71.7,64.48Z"/><path d="M80.15,42.86l-7.73-7.64V20.55A1.59,1.59,0,0,0,70.83,19h-9.3A1.59,1.59,0,0,0,60,20.55v2.36L47.23,10.35a1.59,1.59,0,0,0-2.23,0l-8.62,8.52A14.08,14.08,0,1,0,18.62,36.4l-6.55,6.46A3,3,0,0,0,14.2,48H19V78.56a1.58,1.58,0,0,0,1.58,1.58H71.7a1.58,1.58,0,0,0,1.58-1.58V70.77a1.59,1.59,0,0,0-3.17,0V77h-48V48h1a1.6,1.6,0,0,0,1.11-.45L46.11,25.94,68,47.59a1.6,1.6,0,0,0,1.11.45h1v8.14a1.59,1.59,0,0,0,3.17,0V48H78a3,3,0,0,0,2.12-5.18Zm-17-20.73h6.14v10L63.11,26ZM12,23a10.9,10.9,0,0,1,21.71-1.47L21.27,33.78A10.9,10.9,0,0,1,12,23ZM69.8,44.88,47.23,22.59a1.59,1.59,0,0,0-2.23,0L22.43,44.88H14.54L46.11,13.7,77.69,44.88Z"/><path d="M31.58,69.11a1.58,1.58,0,1,0,0,3.16H60.65a1.58,1.58,0,1,0,0-3.16h-15l10.87-13.7a1.58,1.58,0,0,0-1.24-2.57H49l2.58-8.15a1.57,1.57,0,0,0-.23-1.42,1.6,1.6,0,0,0-1.28-.64H40.71a1.59,1.59,0,0,0-1.55,1.23L35.4,60.33a1.58,1.58,0,0,0,.3,1.34,1.6,1.6,0,0,0,1.24.59h5.47l-1.33,6.85Zm7.35-10,3-13.31H47.9l-2.59,8.15A1.59,1.59,0,0,0,46.82,56H52l-6.84,8.62L45.88,61a1.57,1.57,0,0,0-1.56-1.88Z"/>
    </symbol>

    <symbol id="d2" viewBox="0 0 81.06 80.14" >
        <path d="M23.07,6.66a1.58,1.58,0,0,1-1.59-1.58V1.58a1.59,1.59,0,0,1,3.17,0v3.5A1.58,1.58,0,0,1,23.07,6.66Z"/><path d="M5.07,24.71H1.58a1.59,1.59,0,0,1,0-3.17H5.07a1.59,1.59,0,1,1,0,3.17Z"/><path d="M35.79,12a1.63,1.63,0,0,1-1.12-.46,1.58,1.58,0,0,1,0-2.24l2.47-2.48A1.58,1.58,0,1,1,39.38,9l-2.47,2.47A1.58,1.58,0,0,1,35.79,12Z"/><path d="M7.88,39.93a1.57,1.57,0,0,1-1.12-.46,1.59,1.59,0,0,1,0-2.24l2.47-2.47A1.58,1.58,0,1,1,11.46,37L9,39.47A1.58,1.58,0,0,1,7.88,39.93Z"/><path d="M10.34,12a1.59,1.59,0,0,1-1.12-.47L6.75,9A1.59,1.59,0,0,1,9,6.77l2.46,2.48a1.58,1.58,0,0,1,0,2.24A1.61,1.61,0,0,1,10.34,12Z"/><path d="M71.7,64.48a1.55,1.55,0,0,1-.31,0,1.71,1.71,0,0,1-.3-.09,1.43,1.43,0,0,1-.27-.15,1.55,1.55,0,0,1-.24-.19,1.57,1.57,0,0,1-.2-.25,1.17,1.17,0,0,1-.15-.27,2.46,2.46,0,0,1-.09-.29,1.71,1.71,0,0,1,0-.31,1.55,1.55,0,0,1,0-.31c0-.1.06-.2.09-.3a1.17,1.17,0,0,1,.15-.27,1.73,1.73,0,0,1,.44-.44,1.43,1.43,0,0,1,.27-.15c.1,0,.2-.06.3-.09a1.59,1.59,0,0,1,1.89,1.56,1.71,1.71,0,0,1,0,.31,1.4,1.4,0,0,1-.09.29,1.17,1.17,0,0,1-.15.27,1.5,1.5,0,0,1-.19.25A1.63,1.63,0,0,1,71.7,64.48Z"/><path d="M80.15,42.86l-7.73-7.64V20.55A1.59,1.59,0,0,0,70.83,19h-9.3A1.59,1.59,0,0,0,60,20.55v2.36L47.23,10.35a1.59,1.59,0,0,0-2.23,0l-8.62,8.52A14.08,14.08,0,1,0,18.62,36.4l-6.55,6.46A3,3,0,0,0,14.2,48H19V78.56a1.58,1.58,0,0,0,1.58,1.58H71.7a1.58,1.58,0,0,0,1.58-1.58V70.77a1.59,1.59,0,0,0-3.17,0V77h-48V48h1a1.6,1.6,0,0,0,1.11-.45L46.11,25.94,68,47.59a1.6,1.6,0,0,0,1.11.45h1v8.14a1.59,1.59,0,0,0,3.17,0V48H78a3,3,0,0,0,2.12-5.18Zm-17-20.73h6.14v10L63.11,26ZM12,23a10.9,10.9,0,0,1,21.71-1.47L21.27,33.78A10.9,10.9,0,0,1,12,23ZM69.8,44.88,47.23,22.59a1.59,1.59,0,0,0-2.23,0L22.43,44.88H14.54L46.11,13.7,77.69,44.88Z"/><path d="M31.58,69.11a1.58,1.58,0,1,0,0,3.16H60.65a1.58,1.58,0,1,0,0-3.16h-15l10.87-13.7a1.58,1.58,0,0,0-1.24-2.57H49l2.58-8.15a1.57,1.57,0,0,0-.23-1.42,1.6,1.6,0,0,0-1.28-.64H40.71a1.59,1.59,0,0,0-1.55,1.23L35.4,60.33a1.58,1.58,0,0,0,.3,1.34,1.6,1.6,0,0,0,1.24.59h5.47l-1.33,6.85Zm7.35-10,3-13.31H47.9l-2.59,8.15A1.59,1.59,0,0,0,46.82,56H52l-6.84,8.62L45.88,61a1.57,1.57,0,0,0-1.56-1.88Z"/>
    </symbol>

    <symbol id="d35" viewBox="0 0 51.53 78" >
        <path d="M46.57,51V48.16h3.76A1.18,1.18,0,0,0,51.53,47V40.59a1.18,1.18,0,0,0-1.2-1.19H46.57V36.61a1.23,1.23,0,0,0-1-1.2l-5.41-.64V27.09h2.43a1.18,1.18,0,0,0,1.2-1.19V19.43a1.18,1.18,0,0,0-1.2-1.19H40l0-.2A14.28,14.28,0,0,0,30.25,5.83l-.13,0L29.4,1a1.14,1.14,0,0,0-1.2-1H23.33a1.29,1.29,0,0,0-1.2,1l-.73,4.8-.13,0A14.24,14.24,0,0,0,11.51,18l0,.2H9a1.18,1.18,0,0,0-1.2,1.19V25.9A1.18,1.18,0,0,0,9,27.09h2.43v7.68L6,35.41a1.23,1.23,0,0,0-1,1.2V39.4H1.2A1.18,1.18,0,0,0,0,40.59V47a1.18,1.18,0,0,0,1.2,1.19H5V51a1.22,1.22,0,0,0,1,1.2l5.42.64V69.15H9a1.18,1.18,0,0,0-1.2,1.19V76.8A1.19,1.19,0,0,0,9,78H42.54a1.19,1.19,0,0,0,1.2-1.2V70.34a1.18,1.18,0,0,0-1.2-1.19H40.11V52.79l5.42-.64A1.22,1.22,0,0,0,46.57,51Zm0-9.16h2.57v4H46.57Zm-41.52,4H2.48v-4H5.05ZM24.38,2.3h2.85l.43,2.57H24ZM13.9,18a12,12,0,0,1,23.81,0l0,.25H13.87ZM7.44,49.91V37.65l4.07-.49V50.4Zm34,21.54v4.07H10.18V71.45ZM13.81,69.06V27h24V69.06ZM10.18,24.7V20.63H41.43V24.7ZM44.27,49.91l-4.07.49V37.16l4.07.49Z"/><path d="M25.81,34.09a9.7,9.7,0,1,0,9.69,9.69A9.7,9.7,0,0,0,25.81,34.09Zm0,17a7.3,7.3,0,1,1,7.3-7.3A7.31,7.31,0,0,1,25.81,51.08Z"/><path d="M25.81,39.4a4.38,4.38,0,1,0,4.38,4.38A4.33,4.33,0,0,0,25.81,39.4Zm0,6.37a2,2,0,1,1,2-2A2,2,0,0,1,25.81,45.77Z"/>
    </symbol>

    <symbol id="d20" viewBox="0 0 53.61 77.99" >
        <path d="M40.21,3.66H34A4.88,4.88,0,0,0,29.25,0H24.37a4.87,4.87,0,0,0-4.7,3.66H13.4A13.41,13.41,0,0,0,0,17.06V57.27A13.41,13.41,0,0,0,12.19,70.61v1.28h0a1.22,1.22,0,0,0,0,2.44h11v2.44A1.21,1.21,0,0,0,24.37,78h4.87a1.21,1.21,0,0,0,1.22-1.22V74.33h11a1.22,1.22,0,0,0,0-2.44h0V70.61A13.41,13.41,0,0,0,53.61,57.27V17.06A13.41,13.41,0,0,0,40.21,3.66ZM24.37,2.44h4.88a2.41,2.41,0,0,1,2.09,1.22H22.27A2.43,2.43,0,0,1,24.37,2.44ZM28,75.55H25.59V74.33H28Zm11-3.66H14.62V70.68H39ZM51.18,57.27a11,11,0,0,1-11,11H13.4a11,11,0,0,1-11-11V39h9.74v9.75a3.66,3.66,0,0,0,3.66,3.65H37.77a3.66,3.66,0,0,0,3.66-3.65V39h9.75ZM14.62,37.75V26.81a1.22,1.22,0,0,1,1.22-1.22H37.77A1.22,1.22,0,0,1,39,26.81V48.75A1.22,1.22,0,0,1,37.77,50H15.84a1.21,1.21,0,0,1-1.22-1.21v-11Zm36.56-1.19H41.43V26.81a3.66,3.66,0,0,0-3.66-3.65H15.84a3.66,3.66,0,0,0-3.66,3.65v9.75H2.44V17.06a11,11,0,0,1,11-11H40.21a11,11,0,0,1,11,11Z"/><path d="M19.76,43.11A1.21,1.21,0,0,0,20,44.82a1.2,1.2,0,0,0,.76.27,1.21,1.21,0,0,0,.95-.46,6.12,6.12,0,0,0,0-7.62,3.66,3.66,0,0,1,0-4.57,1.22,1.22,0,0,0-1.91-1.52,6.12,6.12,0,0,0,0,7.62A3.67,3.67,0,0,1,19.76,43.11Z"/><path d="M25.85,43.11a1.22,1.22,0,1,0,1.9,1.52,6.11,6.11,0,0,0,0-7.62,3.66,3.66,0,0,1,0-4.57,1.22,1.22,0,0,0-1.91-1.52,6.12,6.12,0,0,0,0,7.62A3.67,3.67,0,0,1,25.85,43.11Z"/><path d="M31.94,43.11a1.22,1.22,0,0,0,.19,1.71,1.22,1.22,0,0,0,1.72-.19,6.12,6.12,0,0,0,0-7.62,3.66,3.66,0,0,1,0-4.57,1.22,1.22,0,0,0-.19-1.71,1.23,1.23,0,0,0-1.72.19,6.13,6.13,0,0,0,0,7.62A3.66,3.66,0,0,1,31.94,43.11Z"/>
    </symbol>

    <symbol id="d16" viewBox="0 0 75.13 68.2" >
        <path d="M6.94,68.2a1.64,1.64,0,0,0,1.64-1.64V17L5.3,18.56v48A1.63,1.63,0,0,0,6.94,68.2Z"/><path d="M68.2,68.2a1.64,1.64,0,0,0,1.64-1.64v-48L66.55,17V66.56A1.64,1.64,0,0,0,68.2,68.2Z"/><path d="M37.57,3.51,72.76,19.79A1.67,1.67,0,0,0,75,17.7a1.64,1.64,0,0,0-.87-.94L38.27.15a1.71,1.71,0,0,0-1.4,0L1,16.76a1.64,1.64,0,0,0-.87.94A1.69,1.69,0,0,0,.15,19a1.67,1.67,0,0,0,2.22.82Z"/><path d="M26.41,25.43a5.56,5.56,0,0,0,3.66-1.36,5.63,5.63,0,0,0,7.34,0,5.62,5.62,0,0,0,7.33,0,5.56,5.56,0,0,0,3.67,1.36h.05V22.84h-.05a3,3,0,0,1-2.57-1.44,1.3,1.3,0,0,0-2.2,0,3,3,0,0,1-5.13,0,1.3,1.3,0,0,0-2.2,0,3,3,0,0,1-5.14,0,1.29,1.29,0,0,0-2.19,0,3,3,0,0,1-2.57,1.44h-.05v2.59Z"/><path d="M55.94,55.21V45.09a5.05,5.05,0,0,0-5-5H41.46V33.88h5.46a6.64,6.64,0,0,0,6.63-6.64V20.1a1.48,1.48,0,0,0-2.95,0v7.14a3.69,3.69,0,0,1-3.68,3.69H40a1.48,1.48,0,0,0-1.48,1.47v9.12A1.49,1.49,0,0,0,40,43h10.9A2.1,2.1,0,0,1,53,45.09V55.21a2.1,2.1,0,0,1-2.1,2.09H40a1.48,1.48,0,0,0-1.48,1.48V67h3V60.25h9.43A5.05,5.05,0,0,0,55.94,55.21Z"/><path d="M38.4,55.1H49.3a1.48,1.48,0,0,0,1.48-1.48V46.68a1.47,1.47,0,0,0-1.48-1.47H38.4a2.1,2.1,0,0,1-2.1-2.1V32.4a1.47,1.47,0,0,0-1.47-1.47H27.9a3.69,3.69,0,0,1-3.69-3.69V20.1a1.47,1.47,0,0,0-2.94,0v7.14a6.64,6.64,0,0,0,6.63,6.64h5.46v9.23a5,5,0,0,0,5,5h9.43v4H38.4a5,5,0,0,0-5,5V67H36.3V57.19A2.1,2.1,0,0,1,38.4,55.1Z"/>
    </symbol>

    <symbol id="d5" viewBox="0 0 51.34 78.99" >
        <path d="M30.18,52.66a6.59,6.59,0,1,0,6.58-6.58A6.58,6.58,0,0,0,30.18,52.66ZM35.45,49v3.71h2.63V49a4,4,0,1,1-2.63,0Z"/><path d="M14.48,59.24A6.58,6.58,0,1,0,7.9,52.66,6.57,6.57,0,0,0,14.48,59.24Zm0-10.53a4,4,0,0,1,3.71,2.63H14.48V54h3.71a3.94,3.94,0,1,1-3.71-5.27Z"/><rect x="9.22" y="36.86" width="2.63" height="2.63"/><rect x="14.48" y="36.86" width="2.63" height="2.63"/><path d="M27.31,22.82a1.36,1.36,0,0,0-1.92,0l0,0c-.72.8-4.29,4.9-4.29,7.46a5.27,5.27,0,1,0,10.54,0C31.6,27.72,28,23.62,27.31,22.82Zm-1,10.09a2.63,2.63,0,0,1-2.63-2.63c0-.84,1.23-2.8,2.63-4.54,1.4,1.75,2.63,3.72,2.63,4.54A2.63,2.63,0,0,1,26.33,32.91Z"/><path d="M17.34,17.7l2.19,1.46,1.31-2a4.85,4.85,0,0,0,0-5.41,2.25,2.25,0,0,1,0-2.49l1.32-2L20,5.85l-1.32,2a4.88,4.88,0,0,0,0,5.41,2.22,2.22,0,0,1,0,2.49Z"/><path d="M23.92,17.7l2.19,1.46,1.32-2a4.88,4.88,0,0,0,0-5.41,2.22,2.22,0,0,1,0-2.49l1.31-2L26.55,5.85l-1.32,2a4.88,4.88,0,0,0,0,5.41,2.22,2.22,0,0,1,0,2.49Z"/><path d="M30.5,17.7l2.19,1.46,1.32-2a4.88,4.88,0,0,0,0-5.41,2.22,2.22,0,0,1,0-2.49l1.31-2L33.13,5.85l-1.31,2a4.85,4.85,0,0,0,0,5.41,2.25,2.25,0,0,1,0,2.49Z"/><path d="M51.34,76.36h-7.9a2.64,2.64,0,0,1-2.63-2.64v-4h1.32a1.3,1.3,0,0,0,1.31-1.31V64.51H50a1.32,1.32,0,0,0,1.31-1.32V1.32A1.32,1.32,0,0,0,50,0H1.32A1.32,1.32,0,0,0,0,1.32V63.19a1.32,1.32,0,0,0,1.32,1.32H7.9v3.95a1.31,1.31,0,0,0,1.32,1.31h1.31v4A2.64,2.64,0,0,1,7.9,76.36H0V79H7.9a5.27,5.27,0,0,0,5.27-5.27v-4h1.31a1.31,1.31,0,0,0,1.32-1.31V64.51H35.55v3.95a1.3,1.3,0,0,0,1.31,1.31h1.32v4A5.27,5.27,0,0,0,43.44,79h7.9ZM13.17,67.14H10.53V64.51h2.64ZM2.63,61.88V2.63H48.71V61.88Zm35.55,5.26V64.51h2.63v2.63Z"/>
    </symbol>

    <symbol id="d28" viewBox="0 0 64.57 76.99" >
        <path d="M64.57,14.9h0V12.42h0V5h0V0H49.67V5h0v7.45h0V14.9h0v7.45h0V37.92a3.87,3.87,0,0,1-1.59,3.16c-4,2.82-8.34,0-8.34-3.83V19.19c0-6.67-4.89-14.53-11-17.24C14.18-4.52,0,6.05,0,19.87v14.9H0v7.45H0V44.7H0v7.45H0v5H14.9v-5h0V44.7h0V42.22h0V34.77h0V19.2A3.87,3.87,0,0,1,16.5,16c4-2.82,8.34,0,8.34,3.83V37.93c0,6.67,4.89,14.54,11,17.24,14.57,6.47,28.75-4.1,28.75-17.92V22.35h0ZM52.15,2.48h9.94V5H52.15Zm0,5h9.94V9.93H52.15Zm0,5h9.94V14.9H52.15ZM12.42,54.64H2.48V52.15h9.94Zm0-5H2.48V47.19h9.94Zm0-5H2.48V42.22h9.94Zm0-5H2.48V37.25h9.94Zm49.67-2.49c0,12.2-12.63,21.51-25.51,15.53a16.32,16.32,0,0,1-9.26-14.85V19.19a6.33,6.33,0,0,0-3-5.43c-5.85-3.59-11.94.56-11.94,6.11v14.9H2.48V19.19A16.31,16.31,0,0,1,11.75,4.34c12.87-6,25.5,3.33,25.5,15.53V37.94a6.32,6.32,0,0,0,3,5.42c5.84,3.59,11.93-.56,11.93-6.11V22.35h9.94Zm0-17.38H52.15V17.38h9.94Z"/><path d="M8.48,60.16a1.28,1.28,0,0,0-2.06,0L2.7,65.73a8.71,8.71,0,0,0-1.46,4.84A6.37,6.37,0,0,0,6.84,77q.3,0,.6,0a6.2,6.2,0,0,0,6.22-6.21v-.23a8.72,8.72,0,0,0-1.46-4.82Zm2.7,10.62a3.73,3.73,0,0,1-4.1,3.71,3.87,3.87,0,0,1-3.35-3.94,6.18,6.18,0,0,1,1-3.44l2.68-4,2.68,4a6.19,6.19,0,0,1,1,3.44Z"/>
    </symbol>

    <symbol id="d19" viewBox="0 0 76.24 60.99" >
        <path d="M50,43.2H31.32a4.64,4.64,0,0,0-4.64,4.64v1.71h0v1.71a4.64,4.64,0,0,0,4.64,4.64H50a4.64,4.64,0,0,0,4.64-4.64V47.84A4.64,4.64,0,0,0,50,43.2Zm0,10.17H31.32a2.1,2.1,0,0,1-2.09-2.1v-.44H33a1.27,1.27,0,0,0,0-2.54H29.23v-.45a2.1,2.1,0,0,1,2.09-2.1H50a2.1,2.1,0,0,1,2.1,2.1v.45H48.29a1.27,1.27,0,1,0,0,2.54H52.1v.44A2.1,2.1,0,0,1,50,53.37Z"/><path d="M75,53.37H59.72V45.74H75a1.27,1.27,0,1,0,0-2.54H59.72v-.44a4.64,4.64,0,0,0-4.64-4.64H47V31.77l.88-.4,0,0c.34-.16.67-.35,1-.54l.11-.06q.51-.3,1-.63l0,0v0a16.52,16.52,0,1,0-18.84,0v0l0,0c.33.22.66.43,1,.63l.11.07c.32.19.65.36,1,.53l0,0,.88.4v6.35H26.24a4.64,4.64,0,0,0-4.64,4.64v.66a10.18,10.18,0,0,1-8.89-10.08V1.27a1.27,1.27,0,1,0-2.54,0V33.34A12.71,12.71,0,0,0,21.6,46v7.35a20.19,20.19,0,0,1-19.06-20V1.27A1.27,1.27,0,0,0,0,1.27V33.34A22.73,22.73,0,0,0,21.6,55.87v.48A4.64,4.64,0,0,0,26.24,61H55.08a4.64,4.64,0,0,0,4.64-4.64v-.44H75a1.27,1.27,0,0,0,0-2.54ZM33.79,28.68a8.86,8.86,0,0,1,13.75,0l0,0a13.31,13.31,0,0,1-2.22,1c-.28.1-.56.18-.84.26a14.36,14.36,0,0,1-7.53,0c-.29-.08-.57-.16-.85-.26a13.22,13.22,0,0,1-2.21-1ZM26.68,16.52a14,14,0,1,1,23,10.71,11.41,11.41,0,0,0-17.94,0A14,14,0,0,1,26.68,16.52ZM36.85,32.59l.22,0,1.08.21h0c.35,0,.71.09,1.06.12l.3,0h.16q.47,0,.93,0h0q.48,0,.93,0h.17l.29,0c.36,0,.72-.07,1.07-.12h0c.37-.06.73-.13,1.09-.21l.21,0v5.53H36.85ZM55.08,58.45H26.24a2.1,2.1,0,0,1-2.1-2.1V42.76a2.1,2.1,0,0,1,2.1-2.1H55.08a2.1,2.1,0,0,1,2.1,2.1v1.71h0V54.64h0v1.71A2.1,2.1,0,0,1,55.08,58.45Z"/><path d="M31.77,16.52a1.27,1.27,0,1,0-1.27,1.27A1.27,1.27,0,0,0,31.77,16.52Z"/><path d="M50.83,17.79a1.27,1.27,0,1,0-1.27-1.27A1.27,1.27,0,0,0,50.83,17.79Z"/><path d="M33,11.44a1.28,1.28,0,1,0-1.27-1.27A1.27,1.27,0,0,0,33,11.44Z"/><path d="M40.66,7.62a1.27,1.27,0,1,0-1.27-1.27A1.27,1.27,0,0,0,40.66,7.62Z"/><path d="M48.29,11.44A1.28,1.28,0,1,0,47,10.17,1.27,1.27,0,0,0,48.29,11.44Z"/><path d="M39.69,19.87a1.23,1.23,0,0,0,1,.46,1.32,1.32,0,0,0,.82-.29,1.28,1.28,0,0,0,.16-1.79l-4.26-5.11a1.27,1.27,0,1,0-2,1.63Z"/>
    </symbol>

    <symbol id="d32" viewBox="0 0 81.7 76.63" >
        <path d="M78.8,49.39h-8V46.85A2.9,2.9,0,0,0,67.9,44H62.82a2.9,2.9,0,0,0-2.91,2.9v2.54H50.38v-15H69.2A5.78,5.78,0,0,0,75,28.66V5.78A5.78,5.78,0,0,0,69.2,0H13.84A5.79,5.79,0,0,0,8.06,5.78V28.66a5.79,5.79,0,0,0,5.78,5.78H31.32v15H21.79V46.85A2.9,2.9,0,0,0,18.88,44H13.8a2.9,2.9,0,0,0-2.91,2.9v2.54h-8A2.9,2.9,0,0,0,0,52.3v16a2.9,2.9,0,0,0,2.9,2.9h8v2.54a2.91,2.91,0,0,0,2.91,2.91h5.08a2.91,2.91,0,0,0,2.91-2.91V71.18H59.91v2.54a2.91,2.91,0,0,0,2.91,2.91H67.9a2.91,2.91,0,0,0,2.91-2.91V71.18h8a2.9,2.9,0,0,0,2.91-2.9v-16A2.9,2.9,0,0,0,78.8,49.39ZM10.89,68.46h-8a.18.18,0,0,1-.18-.18v-16a.18.18,0,0,1,.18-.18h8Zm8.17-17.71h0V69.82h0v3.9a.18.18,0,0,1-.18.18H13.8a.18.18,0,0,1-.18-.18V46.85a.18.18,0,0,1,.18-.18h5.08a.18.18,0,0,1,.18.18ZM71.89,24.31H11.15V9.56H71.89Zm-58-21.22H69.2a2.69,2.69,0,0,1,2.69,2.69v1H11.15v-1A2.69,2.69,0,0,1,13.84,3.09ZM11.15,28.66V27.07H71.89v1.59a2.7,2.7,0,0,1-2.69,2.69H13.84A2.7,2.7,0,0,1,11.15,28.66Zm36.51,5.78v15H34v-15Zm12.25,34H21.79V52.12H59.91Zm8.17,5.26a.18.18,0,0,1-.18.18H62.82a.18.18,0,0,1-.18-.18V46.85a.18.18,0,0,1,.18-.18H67.9a.18.18,0,0,1,.18.18ZM79,68.28a.18.18,0,0,1-.18.18h-8V52.12h8a.19.19,0,0,1,.18.18Z"/><path d="M16.17,15.54a1.39,1.39,0,1,0-1.39-1.39A1.39,1.39,0,0,0,16.17,15.54Z"/><path d="M16.17,18.32a1.39,1.39,0,1,0,1.39,1.39A1.39,1.39,0,0,0,16.17,18.32Z"/>
    </symbol>

    <symbol id="d8" viewBox="0 0 73.99 73.99" >
        <path d="M72.76,66.59H71.52V55.49a1.23,1.23,0,0,0-1.23-1.23H60.43V19.73h6.16a1.23,1.23,0,0,0,1.23-1.23v-1A3.7,3.7,0,0,1,70.29,21a1.24,1.24,0,1,0,2.47,0A6.17,6.17,0,0,0,70.28,16a6.14,6.14,0,0,0,2.48-4.93,1.24,1.24,0,0,0-2.47,0,3.69,3.69,0,0,1-2.47,3.48v-1a1.23,1.23,0,0,0-1.23-1.23H60.43V3.7A3.7,3.7,0,0,0,56.73,0H54.26a3.7,3.7,0,0,0-3.7,3.7v8.63H48.09V3.7A3.7,3.7,0,0,0,44.4,0H41.93a3.7,3.7,0,0,0-3.7,3.7v8.63H35.76V3.7A3.7,3.7,0,0,0,32.06,0H29.6a3.7,3.7,0,0,0-3.7,3.7v8.63H23.43V3.7A3.7,3.7,0,0,0,19.73,0H17.26a3.7,3.7,0,0,0-3.7,3.7v8.63H8.63V9.87A1.23,1.23,0,0,0,7.4,8.63H1.23A1.23,1.23,0,0,0,0,9.87V22.2a1.23,1.23,0,0,0,1.23,1.23H7.4A1.23,1.23,0,0,0,8.63,22.2V19.73h4.93V54.26H3.7a1.23,1.23,0,0,0-1.23,1.23v11.1H1.23A1.23,1.23,0,0,0,0,67.82v4.94A1.23,1.23,0,0,0,1.23,74H11.1a1.23,1.23,0,0,0,1.23-1.23V67.82a1.23,1.23,0,0,0-1.23-1.23H9.87V61.66h3.69v8.63a3.7,3.7,0,0,0,3.7,3.7h2.47a3.7,3.7,0,0,0,3.7-3.7V61.66H25.9v8.63A3.7,3.7,0,0,0,29.6,74h2.46a3.7,3.7,0,0,0,3.7-3.7V61.66h2.47v8.63a3.7,3.7,0,0,0,3.7,3.7H44.4a3.7,3.7,0,0,0,3.69-3.7V61.66h2.47v8.63a3.7,3.7,0,0,0,3.7,3.7h2.47a3.7,3.7,0,0,0,3.7-3.7V61.66h3.7v4.93H62.89a1.23,1.23,0,0,0-1.23,1.23v4.94A1.23,1.23,0,0,0,62.89,74h9.87A1.23,1.23,0,0,0,74,72.76V67.82A1.23,1.23,0,0,0,72.76,66.59ZM65.36,14.8v2.46H60.43V14.8ZM48.09,19.73h2.47V54.26H48.09Zm2.47-4.93v2.46H48.09V14.8Zm-14.8,4.93h2.47V54.26H35.76Zm2.47-4.93v2.46H35.76V14.8Zm-14.8,4.93H25.9V54.26H23.43ZM25.9,14.8v2.46H23.43V14.8ZM6.17,21H2.47V11.1h3.7V21Zm2.46-3.7V14.8h4.93v2.46ZM9.87,71.52H2.47V69.06h7.4ZM8.63,59.19A1.23,1.23,0,0,0,7.4,60.43v6.16H4.93V56.73h8.63v2.46ZM21,70.29a1.23,1.23,0,0,1-1.23,1.23H17.26A1.23,1.23,0,0,1,16,70.29V3.7a1.24,1.24,0,0,1,1.23-1.23h2.47A1.23,1.23,0,0,1,21,3.7V70.29Zm2.47-11.1V56.73H25.9v2.46Zm9.87,11.1a1.24,1.24,0,0,1-1.24,1.23H29.6a1.24,1.24,0,0,1-1.24-1.23V3.7A1.24,1.24,0,0,1,29.6,2.47h2.46A1.24,1.24,0,0,1,33.3,3.7V70.29Zm2.46-11.1V56.73h2.47v2.46Zm9.87,11.1a1.23,1.23,0,0,1-1.23,1.23H41.93a1.24,1.24,0,0,1-1.24-1.23V3.7a1.24,1.24,0,0,1,1.24-1.23H44.4A1.23,1.23,0,0,1,45.63,3.7V70.29Zm2.46-11.1V56.73h2.47v2.46ZM58,70.29a1.23,1.23,0,0,1-1.23,1.23H54.26A1.23,1.23,0,0,1,53,70.29V3.7a1.23,1.23,0,0,1,1.23-1.23h2.47A1.23,1.23,0,0,1,58,3.7V70.29Zm7.4-11.1H60.43V56.73h8.63v9.86H66.59V60.43A1.23,1.23,0,0,0,65.36,59.19Zm6.16,12.33H64.13V69.06h7.39Z"/>
    </symbol>

    <symbol id="d27" viewBox="0 0 92.7 70.99" >
        <path d="M71,71H88.35a4.35,4.35,0,0,0,4.35-4.35V56.5a1.54,1.54,0,0,0-.11-.55,1.38,1.38,0,0,0-.31-.47L80.69,43.89a1.46,1.46,0,0,0-2,0L67.48,55.06H63.74V10.15a1.65,1.65,0,0,0-.11-.57,1.79,1.79,0,0,0-.2-.28.71.71,0,0,0-.12-.18L54.62.43a1.4,1.4,0,0,0-.47-.32A1.55,1.55,0,0,0,53.59,0H1.45A1.46,1.46,0,0,0,0,1.45V60.84a1.55,1.55,0,0,0,.11.56,1.4,1.4,0,0,0,.32.47l8.68,8.68a1.58,1.58,0,0,0,.48.33,1.7,1.7,0,0,0,.31.06,2,2,0,0,0,.24,0H62.29a1.45,1.45,0,0,0,1.45-1.45V58h2.89v8.69A4.35,4.35,0,0,0,71,71ZM2.9,5l5.79,5.79V66L2.9,60.24ZM10.74,8.7,5,2.9H16.78l5.79,5.8Zm15.93,0-5.8-5.8H53l5.8,5.8ZM60.84,68.09H11.59V11.59H60.84V55.06h-2.9a1.45,1.45,0,1,0,0,2.89h2.9ZM79.66,47l8.1,8.1H82.62a1.45,1.45,0,0,0,0-2.9h0a1.45,1.45,0,0,0,0,2.9H76.82a1.45,1.45,0,0,0,0-2.9h0a1.45,1.45,0,0,0,0,2.9H71.57Zm8.7,21.13H71a1.45,1.45,0,0,1-1.46-1.45V58H89.8v8.69A1.44,1.44,0,0,1,88.36,68.09Z"/><path d="M79.71,52.16a1.45,1.45,0,1,0,0-2.9h0a1.44,1.44,0,0,0-1.44,1.45A1.46,1.46,0,0,0,79.71,52.16Z"/><path d="M50.69,53.25h-29a1.45,1.45,0,0,0,0,2.89h29a1.45,1.45,0,1,0,0-2.89Z"/><path d="M43.44,57.6H29a1.45,1.45,0,0,0,0,2.89H43.44a1.45,1.45,0,1,0,0-2.89Z"/><path d="M52.69,33.12h-32V22.25H52.69Zm-29.15-2.9H49.79V25.15H23.54Z"/>
    </symbol>

    <symbol id="d3" viewBox="0 0 78.99 78.99" >
        <path d="M78.56,46.1,32.89.44A1.5,1.5,0,0,0,31.83,0H1.49A1.49,1.49,0,0,0,0,1.49V31.83a1.5,1.5,0,0,0,.44,1.06L46.1,78.55a1.51,1.51,0,0,0,1.06.44,1.49,1.49,0,0,0,1.05-.44L78.56,48.21a1.51,1.51,0,0,0,0-2.11ZM47.16,75.4,3,31.22V3H31.22L75.4,47.16Z"/><path d="M16.66,9.82a6.84,6.84,0,1,0,6.84,6.84A6.85,6.85,0,0,0,16.66,9.82Zm0,10.71a3.87,3.87,0,1,1,3.87-3.87A3.88,3.88,0,0,1,16.66,20.53Z"/><path d="M50.87,46.86a5.51,5.51,0,1,0-5.5-5.51A5.51,5.51,0,0,0,50.87,46.86Zm0-8a2.53,2.53,0,1,1-2.52,2.52A2.52,2.52,0,0,1,50.87,38.83Z"/><path d="M26.33,41.35a5.51,5.51,0,1,0,5.5-5.5A5.51,5.51,0,0,0,26.33,41.35Zm5.5-2.52a2.53,2.53,0,1,1-2.53,2.52A2.52,2.52,0,0,1,31.83,38.83Z"/><path d="M41.35,58.16a1.48,1.48,0,0,0,1.49-1.48V26.18a1.49,1.49,0,1,0-3,0v30.5A1.48,1.48,0,0,0,41.35,58.16Z"/>
    </symbol>

    <symbol id="d36" viewBox="0 0 88.22 75.99" >
        <path d="M80.72,32.3a25.59,25.59,0,0,0-36.5.31A25.7,25.7,0,0,0,30.27,25V22.36a1.14,1.14,0,0,0-1.14-1.14H27.42l.14-.42a16,16,0,0,0,.54-4.35A20.2,20.2,0,0,0,28,14.38a18.14,18.14,0,0,0,2.11.12A15.9,15.9,0,0,0,34.45,14c1.6-.48,2.49-1.29,2.49-2.29s-.89-1.81-2.49-2.29A17.57,17.57,0,0,0,28,8.94a20.53,20.53,0,0,0,.11-2.11,16,16,0,0,0-.54-4.35C27.13.88,26.32,0,25.32,0S23.51.88,23,2.49a15.9,15.9,0,0,0-.54,4.35c0,.67,0,1.34.1,2.05a18,18,0,0,0-6.45.43c-1.61.48-2.49,1.3-2.49,2.29s.88,1.82,2.49,2.29a17.7,17.7,0,0,0,6.41.44,18.39,18.39,0,0,0-.12,2.11A15.93,15.93,0,0,0,23,20.8c0,.14.09.28.14.42H21.8a1.15,1.15,0,0,0-1.15,1.14V25A25.61,25.61,0,0,0,0,50.16,25.6,25.6,0,0,0,44,68,25.59,25.59,0,1,0,80.72,32.3ZM23,11.58c0,.14-.07.28-.1.42a17.8,17.8,0,0,1-2.45.16,14,14,0,0,1-3.71-.44l-.33-.11.33-.1a13.58,13.58,0,0,1,3.71-.45,16.89,16.89,0,0,1,2.38.16H23A3.59,3.59,0,0,0,23,11.58Zm4.53-.29.2,0a17.89,17.89,0,0,1,2.33-.14,13.94,13.94,0,0,1,3.7.44l.33.11-.33.1a13.5,13.5,0,0,1-3.7.45A15.35,15.35,0,0,1,27.66,12h-.07l-.12-.43C27.5,11.5,27.54,11.4,27.57,11.29Zm-1.87-2v0l-.34.08-.42-.1V9.17a18,18,0,0,1-.15-2.33,13.58,13.58,0,0,1,.45-3.71c0-.12.07-.23.1-.33l.11.33a14,14,0,0,1,.44,3.71A16.55,16.55,0,0,1,25.7,9.27Zm-.83,4.79s0-.08,0-.12l.44-.12.31.1V14a17.82,17.82,0,0,1,.17,2.46,13.56,13.56,0,0,1-.45,3.7l-.1.33a3.17,3.17,0,0,1-.11-.33,13.5,13.5,0,0,1-.45-3.7A18.69,18.69,0,0,1,24.87,14.06ZM22.94,40.52v-17h5v17ZM39.31,50v0a13.75,13.75,0,0,0-9-12.65V27.31A23.33,23.33,0,0,1,48.91,50.16v.48a13.68,13.68,0,1,0,1.55-6.58,25.77,25.77,0,0,0-4.74-9.72,23.33,23.33,0,1,1-6.41,16V50Zm-9-8.29V39.72a11.52,11.52,0,0,1,4.51,3.62,11.44,11.44,0,1,1-18.4,0,11.54,11.54,0,0,1,4.27-3.55v1.82A1.15,1.15,0,0,0,21.8,42.8h7.33A1.14,1.14,0,0,0,30.27,41.66Zm-9.62-4.3A13.72,13.72,0,1,0,37.76,56.5a25.06,25.06,0,0,0,.85,2.76,25.44,25.44,0,0,0,3.89,6.95A23.32,23.32,0,1,1,20.65,27.37Zm33.89,5a11.43,11.43,0,1,1-3.35,8.09A11.35,11.35,0,0,1,54.54,42.31Z"/>
    </symbol>

    <symbol id="d33" viewBox="0 0 86.24 66.99" >
        <path d="M86.24,61.45V15.7a1.36,1.36,0,0,0-.93-1.37h0L43.9,2A53.31,53.31,0,0,0,29.14,0C13.07,0,0,6.39,0,14.25V52.74C0,60.6,13.07,67,29.14,67c16.34,0,29.14-6.26,29.14-14.25v-1.6L84.47,62.77a.9.9,0,0,0,.4,0,1,1,0,0,0,.59-.23A1.54,1.54,0,0,0,86.24,61.45ZM55.55,52.74c0,5.45-10.85,11.53-26.41,11.53S2.72,58.19,2.72,52.74V20.29l.77.71c4.87,4.52,14.7,7.32,25.65,7.32,10.58,0,20.65-2.88,25.66-7.33l.75-.67Zm-26.41-27c-15.57,0-26.42-6.08-26.42-11.53S13.57,2.72,29.14,2.72,55.55,8.8,55.55,14.25,44.7,25.78,29.14,25.78ZM83.51,59.43,58.28,48.13V14.25a8.56,8.56,0,0,0-1.74-4.83l-.7-1.05,27.67,8.27Z"/><path d="M29.14,7.44C21.63,7.44,16,10.37,16,14.25s5.65,6.81,13.16,6.81S42.3,18.13,42.3,14.25,36.64,7.44,29.14,7.44Zm0,10.9c-6,0-10.44-2.16-10.44-4.09s4.46-4.08,10.44-4.08,10.44,2.15,10.44,4.08S35.11,18.34,29.14,18.34Z"/>
    </symbol>

    <symbol id="d31" viewBox="0 0 101.23 42.99" >
        <path d="M20.67,42.89H15.22a5.79,5.79,0,0,1-5.71-5.71V18.41H1a1,1,0,0,1-1-1V13.66a1,1,0,0,1,1-1H9.57a5.83,5.83,0,0,1,5.61-4.92h5.49a1,1,0,0,1,1,1V41.88A1,1,0,0,1,20.67,42.89ZM2,16.4h8.51a1,1,0,0,1,1,1V37.18a3.76,3.76,0,0,0,3.7,3.7h4.45V9.75H15.22a3.79,3.79,0,0,0-3.7,3.7v.21a1,1,0,0,1-1,1H2Z"/><path d="M77,43H24.21a1,1,0,0,1-1-1V8.85a1,1,0,0,1,1-1h5.73V5.15H27.85a1,1,0,0,1-1-1V1a1,1,0,0,1,1-1H43a1,1,0,0,1,1,1V4.15a1,1,0,0,1-1,1H41v2.7H60.19V5.15h-2a1,1,0,0,1-1-1V1a1,1,0,0,1,1-1H73.38a1,1,0,0,1,1,1V4.15a1,1,0,0,1-1,1H71.29v2.7H77a1,1,0,0,1,1,1V42A1,1,0,0,1,77,43Zm-51.8-2H76V9.86H70.28a1,1,0,0,1-1-1V4.15a1,1,0,0,1,1-1h2.1V2H59.21V3.14h2a1,1,0,0,1,1,1v4.7a1,1,0,0,1-1,1H40a1,1,0,0,1-1-1V4.15a1,1,0,0,1,1-1h2V2H28.85V3.14H31a1,1,0,0,1,1,1v4.7a1,1,0,0,1-1,1H25.22Z"/><path d="M86,42.89H80.56a1,1,0,0,1-1-1V8.75a1,1,0,0,1,1-1H86a5.8,5.8,0,0,1,5.66,5h8.56a1,1,0,0,1,1,1v3.74a1,1,0,0,1-1,1H91.72V37.18A5.79,5.79,0,0,1,86,42.89Zm-4.45-2H86a3.76,3.76,0,0,0,3.7-3.7V17.51a1,1,0,0,1,1-1h8.51V14.77H90.71a1,1,0,0,1-1-1v-.32A3.75,3.75,0,0,0,86,9.75H81.56Z"/>
    </symbol>

    <symbol id="d7" viewBox="0 0 77.99 77.99" >
        <path d="M52,54.78a1.3,1.3,0,0,1-1.3-1.3,1.29,1.29,0,0,1,.43-1,18.2,18.2,0,0,0-3.64-29.6,1.3,1.3,0,0,1,1.23-2.3h0a20.81,20.81,0,0,1,8.61,28.13,21.05,21.05,0,0,1-4.45,5.7,1.33,1.33,0,0,1-.88.33Z"/><path d="M26,54.78a1.29,1.29,0,0,1-.87-.33,20.81,20.81,0,0,1,4.15-33.83,1.3,1.3,0,0,1,1.23,2.3,18.19,18.19,0,0,0-3.64,29.6,1.3,1.3,0,0,1,.09,1.83,1.27,1.27,0,0,1-1,.43Z"/><path d="M76.69,29.9H67.48a30.45,30.45,0,0,0-1.91-4.61l6.52-6.51a1.32,1.32,0,0,0,0-1.84l-11-11a1.3,1.3,0,0,0-1.84,0L52.7,12.42a29.45,29.45,0,0,0-4.61-1.91V1.3A1.3,1.3,0,0,0,46.79,0H31.2a1.3,1.3,0,0,0-1.3,1.3v9.21a29.45,29.45,0,0,0-4.61,1.91L18.78,5.91a1.3,1.3,0,0,0-1.84,0l-11,11a1.3,1.3,0,0,0,0,1.84l6.51,6.51a30.45,30.45,0,0,0-1.91,4.61H1.3A1.3,1.3,0,0,0,0,31.2V46.79a1.3,1.3,0,0,0,1.3,1.3h9.21a30.45,30.45,0,0,0,1.91,4.61L5.91,59.21a1.3,1.3,0,0,0,0,1.84l11,11a1.32,1.32,0,0,0,1.84,0l6.51-6.52a29.12,29.12,0,0,0,5.55,2.19,1.1,1.1,0,0,0,.36,0v3.7A6.5,6.5,0,0,0,37.7,78h2.59a6.5,6.5,0,0,0,6.5-6.5v-3.7a1.1,1.1,0,0,0,.36,0,29.12,29.12,0,0,0,5.55-2.19l6.51,6.52a1.32,1.32,0,0,0,1.84,0l11-11a1.32,1.32,0,0,0,0-1.84L65.57,52.7a30.45,30.45,0,0,0,1.91-4.61h9.21a1.3,1.3,0,0,0,1.3-1.3V31.2A1.3,1.3,0,0,0,76.69,29.9ZM35.38,26l2.08-10.4h3.07L42.61,26Zm2.32,2.6h2.59V46.79H37.7Zm7.79,20.79a1.3,1.3,0,0,1,0,2.6h-13a1.3,1.3,0,1,1,0-2.6Zm-1.3,22.1a3.9,3.9,0,0,1-3.9,3.9H37.7a3.9,3.9,0,0,1-3.9-3.9V54.59H44.19Zm31.2-26H66.51a1.31,1.31,0,0,0-1.25.95,26.48,26.48,0,0,1-2.43,5.85,1.3,1.3,0,0,0,.22,1.56l6.28,6.28-9.2,9.2L53.85,63a1.3,1.3,0,0,0-1.56-.21,26.08,26.08,0,0,1-5.5,2.32V54.35a3.89,3.89,0,0,0-1.3-7.56h-2.6V28.6h1.3a1.3,1.3,0,0,0,1.3-1.3,1.1,1.1,0,0,0,0-.26l-2.6-13a1.3,1.3,0,0,0-1.28-1H36.4a1.31,1.31,0,0,0-1.28,1l-2.6,13a1.3,1.3,0,0,0,1,1.53,1.09,1.09,0,0,0,.26,0h1.3V46.79H32.5a3.89,3.89,0,0,0-1.3,7.56v10.8a26.08,26.08,0,0,1-5.5-2.32,1.3,1.3,0,0,0-1.56.22l-6.28,6.28-9.2-9.2L15,53.85a1.3,1.3,0,0,0,.21-1.56,27,27,0,0,1-2.43-5.85,1.31,1.31,0,0,0-1.25-.95H2.6v-13h8.88a1.31,1.31,0,0,0,1.25-.95,26.48,26.48,0,0,1,2.43-5.85,1.29,1.29,0,0,0-.22-1.56L8.66,17.86l9.2-9.2L24.14,15a1.3,1.3,0,0,0,1.56.21,27,27,0,0,1,5.85-2.43,1.31,1.31,0,0,0,.95-1.25V2.6h13v8.88a1.31,1.31,0,0,0,.95,1.25,26.48,26.48,0,0,1,5.85,2.43,1.29,1.29,0,0,0,1.56-.22l6.28-6.28,9.2,9.2L63,24.14a1.3,1.3,0,0,0-.21,1.56,27,27,0,0,1,2.43,5.85,1.31,1.31,0,0,0,1.25.95h8.88Z"/><path d="M39,72.79a1.3,1.3,0,0,0,1.29-1.3v-13a1.3,1.3,0,1,0-2.59,0v13A1.3,1.3,0,0,0,39,72.79Z"/><path d="M14.18,16,16,14.18,17.85,16,16,17.85Z"/><path d="M5.2,37.7H7.8v2.59H5.2Z"/><path d="M14.17,62,16,60.13,17.85,62,16,63.81Z"/><path d="M60.12,62,62,60.14,63.8,62,62,63.81Z"/><path d="M70.19,37.7h2.6v2.59h-2.6Z"/><path d="M60.16,16,62,14.21l1.83,1.84L62,17.88Z"/>
    </symbol>

    <symbol id="d22" viewBox="0 0 86.58 68.99" >
        <path d="M86.44,12.85,80.35,2a4,4,0,0,0-3.51-2H9.74A4,4,0,0,0,6.22,2L.14,12.85a1.43,1.43,0,0,0-.14.68v51.4A4,4,0,0,0,4.06,69H82.52a4,4,0,0,0,4.06-4.06V13.53A1.43,1.43,0,0,0,86.44,12.85ZM8.52,3.38a1.43,1.43,0,0,1,1.22-.67h67.1a1.42,1.42,0,0,1,1.21.67l4.87,8.79H3.65ZM83.87,64.93a1.28,1.28,0,0,1-1.35,1.36H4.06a1.28,1.28,0,0,1-1.35-1.36V14.88H83.87Z"/><path d="M48.29,52l-3.24,3.24a1.34,1.34,0,0,0,1.89,1.9l3.25-3.25A17,17,0,0,0,61.55,58a17.49,17.49,0,0,0,11.36-4.19l3.25,3.25a1.34,1.34,0,0,0,1.89-1.9L74.81,52A17.11,17.11,0,0,0,79,40.58a17.51,17.51,0,0,0-4.19-11.36L78.05,26a1.29,1.29,0,0,0,0-1.89,1.3,1.3,0,0,0-1.89,0l-3.25,3.25a17,17,0,0,0-11.36-4.2,17.5,17.5,0,0,0-11.36,4.2l-3.25-3.25A1.34,1.34,0,0,0,45.05,26l3.24,3.25A17.09,17.09,0,0,0,44.1,40.58,17.54,17.54,0,0,0,48.29,52Zm13.4,3.51A14.59,14.59,0,0,1,52.22,52l3.38-3.39a10,10,0,0,0,12.44,0L71.43,52A15.92,15.92,0,0,1,61.69,55.46ZM54.25,40.58a7.06,7.06,0,0,1,1.35-4.19l4.19,4.19-4.33,4.2A7,7,0,0,1,54.25,40.58Zm15,0a7.09,7.09,0,0,1-1.35,4.2l-4.33-4.2,4.19-4.19A6.32,6.32,0,0,1,69.26,40.58ZM66,46.81a7.76,7.76,0,0,1-4.2,1.35,7.37,7.37,0,0,1-4.19-1.35l4.19-4.2Zm-4.33-8.12-4.2-4.19a7.69,7.69,0,0,1,4.2-1.36,7,7,0,0,1,4.19,1.36Zm14.88,1.89a14.6,14.6,0,0,1-3.52,9.47l-3.38-3.38a10,10,0,0,0,0-12.44l3.38-3.39A15.93,15.93,0,0,1,76.57,40.58ZM61.69,25.7a14.62,14.62,0,0,1,9.47,3.52L67.77,32.6a10,10,0,0,0-12.44,0L52,29.22A15.91,15.91,0,0,1,61.69,25.7Zm-8.12,8.66a10.05,10.05,0,0,0,0,12.45l-3.38,3.38a14.83,14.83,0,0,1-3.52-9.47,14.56,14.56,0,0,1,3.52-9.47Z"/><path d="M34.36,41.8H10a1.28,1.28,0,0,0-1.35,1.35V57.76A1.28,1.28,0,0,0,10,59.12H34.36a1.28,1.28,0,0,0,1.35-1.36V43.15A1.45,1.45,0,0,0,34.36,41.8ZM33,56.55H11.36V44.64H33Z"/><path d="M8.79,35l10.28-1.36a1.43,1.43,0,0,0,1.22-1.35V24.49a1.45,1.45,0,0,0-1.22-1.36L8.79,21.78a2.49,2.49,0,0,0-1.08.27A1.48,1.48,0,0,0,7.3,23V33.41a1.05,1.05,0,0,0,.41,1C8.12,34.9,8.39,35,8.79,35ZM10,24.89l7.58.95v5.41L10,32.2Z"/><path d="M25.3,33.68,35.58,35a1.46,1.46,0,0,0,1.08-.27,1.48,1.48,0,0,0,.41-1V23.4a1.21,1.21,0,0,0-1.49-1.21L25.3,23.54a1.43,1.43,0,0,0-1.22,1.35v7.85A1.34,1.34,0,0,0,25.3,33.68Zm1.48-7.84,7.58-.95V32.2l-7.58-1Z"/><rect x="15.42" y="49.24" width="2.71" height="2.71"/><rect x="26.24" y="49.24" width="2.71" height="2.71"/>
    </symbol>

    <symbol id="d17" viewBox="0 0 78.61 75.99" >
        <path d="M70.75,1.31H66.82A1.31,1.31,0,0,0,65.51,0H57.65a1.31,1.31,0,0,0-1.31,1.31V2.65A28.86,28.86,0,0,0,28.86,30.13h0a1.31,1.31,0,0,0-1.31,1.31v3.93a1.32,1.32,0,0,0-1.31,1.32v7.86a1.31,1.31,0,0,0,1.31,1.31h1.31v6.55H22.27V51.1A1.3,1.3,0,0,0,21,49.79H13.1a1.31,1.31,0,0,0-1.31,1.31H7.86a1.31,1.31,0,0,0-1.31,1.31H0V55H6.55V70.75H0v2.62H6.55a1.31,1.31,0,0,0,1.31,1.31h3.93A1.31,1.31,0,0,0,13.1,76H21a1.31,1.31,0,0,0,1.31-1.31V73.37H56.34v1.31A1.31,1.31,0,0,0,57.65,76h7.86a1.31,1.31,0,0,0,1.31-1.31h3.93a1.31,1.31,0,0,0,1.31-1.31h6.55V70.75H72.06V55h6.55V52.41H72.06a1.31,1.31,0,0,0-1.31-1.31H66.82a1.31,1.31,0,0,0-1.31-1.31H57.65a1.3,1.3,0,0,0-1.31,1.31v1.31H49.79V45.86H51.1a1.31,1.31,0,0,0,1.31-1.31V36.69a1.32,1.32,0,0,0-1.31-1.32V31.44a1.3,1.3,0,0,0-1.2-1.28,7.9,7.9,0,0,1,6.44-6.46v1.19a1.3,1.3,0,0,0,1.31,1.31h7.86a1.31,1.31,0,0,0,1.31-1.31h3.93a1.31,1.31,0,0,0,1.31-1.31h6.55V21H72.06V5.24h6.55V2.62H72.06A1.31,1.31,0,0,0,70.75,1.31ZM9.17,72.06V53.72h2.62V72.06Zm10.48,1.31H14.41v-21h5.24ZM69.44,53.72V72.06H66.82V53.72ZM59,52.41H64.2v21H59ZM48.48,55h7.86V70.75H22.27V55h7.86a1.31,1.31,0,0,0,1.31-1.31V45.86H47.17v7.86A1.31,1.31,0,0,0,48.48,55Zm1.31-11.79h-21V38h21ZM30.13,35.37V32.75H48.48v2.62Zm17.13-5.24H31.51A26.19,26.19,0,0,1,56.34,5.31V21.05A10.5,10.5,0,0,0,47.26,30.13ZM59,23.58v-21H64.2v21Zm10.48-1.31H66.82V3.93h2.62Z"/>
    </symbol>

    <symbol id="d29" viewBox="0 0 74.97 74.97" >
        <path d="M51.23,13.75h-50A1.24,1.24,0,0,0,0,15H0V68.73A6.24,6.24,0,0,0,6.25,75h40a6.24,6.24,0,0,0,6.25-6.24V15a1.25,1.25,0,0,0-1.25-1.24ZM2.5,31.24H50V57.48H2.5Zm0-15H50v12.5H2.5ZM50,68.73a3.76,3.76,0,0,1-3.75,3.75h-40A3.76,3.76,0,0,1,2.5,68.73V60H50Z"/><circle cx="7.5" cy="24.99" r="1.25"/><circle cx="7.5" cy="19.99" r="1.25"/><circle cx="44.98" cy="24.99" r="1.25"/><circle cx="44.98" cy="19.99" r="1.25"/><circle cx="7.5" cy="68.73" r="1.25"/><circle cx="7.5" cy="63.73" r="1.25"/><circle cx="44.98" cy="68.73" r="1.25"/><circle cx="44.98" cy="63.73" r="1.25"/><path d="M46.23,33.74h-40A1.25,1.25,0,0,0,5,35H5V53.73A1.25,1.25,0,0,0,6.25,55h40a1.25,1.25,0,0,0,1.25-1.25h0V35a1.24,1.24,0,0,0-1.24-1.25ZM45,52.48H7.5V36.24H45Z"/><path d="M73.72,30H65V2.5a1.25,1.25,0,0,0-1.25-1.25H45A1.24,1.24,0,0,0,43.74,0h-5a1.25,1.25,0,0,0-1.25,1.25h0v7.5A1.25,1.25,0,0,0,38.74,10h5A1.25,1.25,0,0,0,45,8.75h12.5V30H56.23A1.25,1.25,0,0,0,55,31.24h0v7.5A1.25,1.25,0,0,0,56.23,40h1.25V73.72A1.25,1.25,0,0,0,58.73,75h5A1.24,1.24,0,0,0,65,73.73h0V40h2.5V57.48a1.25,1.25,0,0,0,1.25,1.25h5A1.25,1.25,0,0,0,75,57.48h0V31.24A1.24,1.24,0,0,0,73.73,30ZM60,16.24h2.5V25H60ZM40,7.5v-5h2.5v5Zm5-1.25V3.75h17.5v10H60V7.5a1.25,1.25,0,0,0-1.25-1.25H45ZM60,27.49h2.5V30H60Zm-2.5,5H65v5h-7.5Zm5,35H60v-20h2.5Zm0,5H60V70h2.5Zm0-27.5H60V40h2.5Zm10,11.25H70V38.74a1.25,1.25,0,0,0-1.25-1.25H67.48v-5h5Z"/><path d="M1,6.22,13.32,9.07a26.53,26.53,0,0,0,5.89.67c.79,0,1.59,0,2.38-.11L30.7,8.8a3.82,3.82,0,0,0,0-7.6L21.59.37a26.43,26.43,0,0,0-8.27.56L1,3.78A1.25,1.25,0,0,0,1,6.22ZM13.88,3.37a23.57,23.57,0,0,1,7.49-.51l9.11.83a1.32,1.32,0,0,1,0,2.62l-9.12.83a23.53,23.53,0,0,1-7.48-.51L6.81,5Z"/>
    </symbol>

    <symbol id="d15" viewBox="0 0 67.31 80.34" >
        <path d="M62.22,45.11h-23V43.18a3.08,3.08,0,0,0-3.08-3.08h-10a3.08,3.08,0,0,0-3.07,3.08v4.94H18.18V45.19a3.07,3.07,0,0,0,2.51-3v-1a3.06,3.06,0,0,0-2.51-3V35.23h9a1.07,1.07,0,0,0,1.07-1.08V4.08A4.08,4.08,0,0,0,24.13,0h-20A4.08,4.08,0,0,0,0,4.08V34.15a1.07,1.07,0,0,0,1.07,1.08h9v2.93a3.06,3.06,0,0,0-2.51,3v1a3.07,3.07,0,0,0,2.51,3v2.93A4.08,4.08,0,0,0,6,52.2v14a4.08,4.08,0,0,0,4.08,4.08h13v5a3.08,3.08,0,0,0,3.07,3.07h10a3.08,3.08,0,0,0,3.08-3.07V73.32H41.1v3.44a3.58,3.58,0,1,0,7.16,0V73.32h7.88v3.44a3.58,3.58,0,1,0,7.16,0V73.21a5.12,5.12,0,0,0,4-5v-18A5.09,5.09,0,0,0,62.22,45.11ZM2.15,4.08A1.92,1.92,0,0,1,4.08,2.15h20a1.92,1.92,0,0,1,1.93,1.93v25H2.15Zm0,29V31.22H26.06v1.86ZM16,35.23v2.86H12.17V35.23ZM9.66,42.17v-1a.94.94,0,0,1,.94-.93h7a.94.94,0,0,1,.94.93v1a.94.94,0,0,1-.94.94h-7A.94.94,0,0,1,9.66,42.17ZM16,45.25v2.87H12.17V45.25Zm7,22.92h-13a1.94,1.94,0,0,1-1.94-1.94v-14a1.94,1.94,0,0,1,1.94-1.94h13Zm14,7.09a.93.93,0,0,1-.93.93h-10a.93.93,0,0,1-.93-.93V43.18a.94.94,0,0,1,.93-.94h10a.94.94,0,0,1,.93.94Zm2.15-28h23a2.94,2.94,0,0,1,2.94,2.86H39.24Zm6.87,29.5a1.43,1.43,0,1,1-2.86,0V73.32h2.86Zm15,0a1.44,1.44,0,0,1-2.87,0V73.32h2.87Zm1.07-5.58h-23V68.31H65.16A2.94,2.94,0,0,1,62.22,71.18Zm2.94-5H39.24V64.3H65.16Zm0-4H39.24V60.29H65.16Zm0-4H39.24V56.28H65.16Zm0-4H39.24V52.27H65.16Z"/><path d="M14.11,9.06a1,1,0,0,0-.92.48C12.66,10.41,8,18.13,8,21.12a6.09,6.09,0,1,0,12.17,0c0-3-4.64-10.71-5.17-11.58A1,1,0,0,0,14.11,9.06Zm0,16a3.94,3.94,0,0,1-3.93-3.94c0-1.49,2.1-5.7,3.93-8.91,1.84,3.2,3.94,7.42,3.94,8.91A3.94,3.94,0,0,1,14.1,25.06Z"/>
    </symbol>

    <symbol id="d26" viewBox="0 0 74.48 67.03" >
        <path id="Shape" d="M72,7.45H69.51a2.5,2.5,0,0,0-1.45-2.26l-.6-2.37A3.71,3.71,0,0,0,63.85,0H45.39a3.73,3.73,0,0,0-3.62,2.82l-.59,2.37a2.51,2.51,0,0,0-1.46,2.26h-5A2.53,2.53,0,0,0,33.3,5.19l-.59-2.37A3.73,3.73,0,0,0,29.09,0H10.63A3.73,3.73,0,0,0,7,2.82L6.42,5.19A2.5,2.5,0,0,0,5,7.45H2.48A2.48,2.48,0,0,0,0,9.93v2.48A2.49,2.49,0,0,0,2.48,14.9H5a2.48,2.48,0,0,0,2.48,2.48V60.82A6.21,6.21,0,0,0,13.65,67H26.07a6.21,6.21,0,0,0,6.2-6.21V17.38a2.48,2.48,0,0,0,2.49-2.48h5a2.48,2.48,0,0,0,2.49,2.48V60.82A6.21,6.21,0,0,0,48.41,67H60.82A6.21,6.21,0,0,0,67,60.82V17.38a2.48,2.48,0,0,0,2.48-2.48H72a2.49,2.49,0,0,0,2.48-2.49V9.93A2.48,2.48,0,0,0,72,7.45Zm-27.82-4a1.25,1.25,0,0,1,1.21-.94H63.85a1.25,1.25,0,0,1,1.21.94L65.44,5H43.79Zm-34.76,0a1.25,1.25,0,0,1,1.21-.94H29.09a1.25,1.25,0,0,1,1.21.94L30.69,5H9Zm-6.94,9V9.93H5v2.48ZM29.79,60.82a3.73,3.73,0,0,1-3.72,3.73H13.65a3.73,3.73,0,0,1-3.72-3.73V17.38h5V57.1a1.24,1.24,0,1,0,2.48,0V17.38h5V57.1a1.25,1.25,0,0,0,2.49,0V17.38h5ZM31,14.9H7.45V7.45H32.27V14.9Zm3.73-2.49V9.93h5v2.48ZM64.55,60.82a3.73,3.73,0,0,1-3.73,3.73H48.41a3.72,3.72,0,0,1-3.72-3.73V17.38h5V57.1a1.25,1.25,0,0,0,2.49,0V17.38h5V57.1a1.24,1.24,0,0,0,2.48,0V17.38h5ZM65.79,14.9H42.21V7.45H67V14.9Zm3.72-2.49V9.93H72v2.48Z"/>
    </symbol>








    <symbol id="view1" viewBox="0 0 37 11.98" >
        <path d="M35.71,2.57H1.28A1.29,1.29,0,0,1,1.28,0H35.71a1.29,1.29,0,1,1,0,2.57Z"/><path d="M35.71,12H1.28a1.29,1.29,0,0,1,0-2.57H35.71a1.29,1.29,0,1,1,0,2.57Z"/>
    </symbol>

    <symbol id="arrow-right" viewBox="0 0 22 14.53" >
        <path class="cls-1" d="M21.27,5.6,15.91.24a.8.8,0,0,0-1.14,0,.8.8,0,0,0,0,1.14l5,5H.81A.77.77,0,0,0,0,7.22.77.77,0,0,0,.81,8H20l-5.2,5.19a.8.8,0,0,0,0,1.14,1,1,0,0,0,.65.16c.33,0,.49,0,.49-.16L21.27,9A2.36,2.36,0,0,0,21.27,5.6Z"/>
    </symbol>

    <symbol id="view2" viewBox="0 0 34.64 11.98" >
        <path d="M11.43,2.57H33.36a1.29,1.29,0,0,0,0-2.57H11.43a1.29,1.29,0,0,0,0,2.57Z"/><path d="M33.36,9.41H11.43a1.29,1.29,0,0,0,0,2.57H33.36a1.29,1.29,0,0,0,0-2.57Z"/><path d="M6.62,0H1.28a1.29,1.29,0,0,0,0,2.57H6.62A1.29,1.29,0,0,0,6.62,0Z"/><path d="M6.62,9.41H1.28a1.29,1.29,0,0,0,0,2.57H6.62a1.29,1.29,0,0,0,0-2.57Z"/>
    </symbol>

    <symbol id="view3" viewBox="0 0 23.1 23" >
        <path d="M9.14,0H1.28A1.28,1.28,0,0,0,0,1.28V9.14a1.28,1.28,0,0,0,1.28,1.28H9.14a1.28,1.28,0,0,0,1.28-1.28V1.28A1.28,1.28,0,0,0,9.14,0ZM7.86,7.86H2.56V2.56h5.3Z"/><path d="M21.82,0H14a1.28,1.28,0,0,0-1.28,1.28V9.14A1.28,1.28,0,0,0,14,10.42h7.86A1.28,1.28,0,0,0,23.1,9.14V1.28A1.28,1.28,0,0,0,21.82,0ZM20.54,7.86H15.23V2.56h5.31Z"/><path d="M9.14,12.58H1.28A1.28,1.28,0,0,0,0,13.86v7.86A1.28,1.28,0,0,0,1.28,23H9.14a1.28,1.28,0,0,0,1.28-1.28V13.86A1.28,1.28,0,0,0,9.14,12.58ZM7.86,20.44H2.56V15.13h5.3Z"/><path d="M21.82,12.58H14a1.28,1.28,0,0,0-1.28,1.28v7.86A1.28,1.28,0,0,0,14,23h7.86a1.28,1.28,0,0,0,1.28-1.28V13.86A1.28,1.28,0,0,0,21.82,12.58Zm-1.28,7.86H15.23V15.13h5.31Z"/>
    </symbol>

    <symbol id="personality" viewBox="0 0 75.5 75.5">
        <g>
            <path class="st0" d="M4.9,68.2c0-1.8,4.5-4,7.6-4.7h0.3l18.7-7c1-0.4,1.6-1.3,1.5-2.3v-6.3c0-0.9-0.5-1.7-1.3-2.1
		c-4.9-2.3-8-7.3-8-12.7c0-1.3-1-2.3-2.3-2.3V26c1.3,0,2.3-1,2.3-2.3V19c0-7.8,6.3-14.1,14.1-14.1S51.8,11.2,51.8,19v4.7
		c0,1.3,1,2.3,2.3,2.3v4.7h4.7V26c0-1.7-0.9-3.2-2.3-4.1v-3c0-10.4-8.4-18.7-18.7-18.7S19,8.6,19,19v3c-1.4,0.8-2.3,2.4-2.3,4.1v4.7
		c0,1.7,0.9,3.3,2.3,4.1c0.6,6,4.1,11.4,9.4,14.4v3.3l-17.1,6.3c-2.1,0.5-11,3.2-11,9.4v4.7c0,1.3,1,2.3,2.3,2.3h32.8v-4.7H4.9V68.2
		z"/>
            <path class="st0" d="M56.5,37.7c-10.4,0-18.7,8.4-18.7,18.7s8.4,18.7,18.7,18.7s18.7-8.4,18.7-18.7S66.8,37.7,56.5,37.7z
		 M56.5,70.5c-7.8,0-14.1-6.3-14.1-14.1s6.3-14.1,14.1-14.1s14.1,6.3,14.1,14.1S64.2,70.5,56.5,70.5z"/>
            <path class="st0" d="M57.2,47.8l-7,7c-0.9,0.9-0.9,2.4,0,3.3l7,7l3.3-3.3l-5.4-5.4l5.4-5.4L57.2,47.8z"/>
        </g>
    </symbol>
    <symbol id="instagram" viewBox="0 0 99 99">
        <g>
            <path d="M49.7,30.1c6.3,0,7,0,9.5,0.1c2.3,0.1,3.5,0.5,4.4,0.8c1.1,0.4,1.9,0.9,2.7,1.8c0.8,0.8,1.3,1.6,1.8,2.7
		c0.3,0.8,0.7,2.1,0.8,4.4c0.1,2.5,0.1,3.2,0.1,9.5s0,7-0.1,9.5c-0.1,2.3-0.5,3.5-0.8,4.4c-0.4,1.1-0.9,1.9-1.8,2.7
		c-0.8,0.8-1.6,1.3-2.7,1.8c-0.8,0.3-2.1,0.7-4.4,0.8c-2.5,0.1-3.2,0.1-9.5,0.1s-7,0-9.5-0.1c-2.3-0.1-3.5-0.5-4.4-0.8
		c-1.1-0.4-1.9-0.9-2.7-1.8c-0.8-0.8-1.3-1.6-1.8-2.7c-0.3-0.8-0.7-2.1-0.8-4.4c-0.1-2.5-0.1-3.2-0.1-9.5s0-7,0.1-9.5
		c0.1-2.3,0.5-3.5,0.8-4.4c0.4-1.1,0.9-1.9,1.8-2.7c0.8-0.8,1.6-1.3,2.7-1.8c0.8-0.3,2.1-0.7,4.4-0.8C42.7,30.1,43.4,30.1,49.7,30.1
		 M49.7,25.8c-6.4,0-7.2,0-9.7,0.1s-4.2,0.5-5.7,1.1s-2.9,1.4-4.2,2.7c-1.3,1.3-2.1,2.6-2.7,4.2c-0.6,1.5-1,3.2-1.1,5.7
		s-0.1,3.3-0.1,9.7s0,7.2,0.1,9.7s0.5,4.2,1.1,5.7s1.4,2.9,2.7,4.2c1.3,1.3,2.6,2.1,4.2,2.7c1.5,0.6,3.2,1,5.7,1.1s3.3,0.1,9.7,0.1
		s7.2,0,9.7-0.1s4.2-0.5,5.7-1.1c1.5-0.6,2.9-1.4,4.2-2.7c1.3-1.3,2.1-2.6,2.7-4.2c0.6-1.5,1-3.2,1.1-5.7s0.1-3.3,0.1-9.7
		s0-7.2-0.1-9.7s-0.5-4.2-1.1-5.7s-1.4-2.9-2.7-4.2c-1.3-1.3-2.6-2.1-4.2-2.7c-1.5-0.6-3.2-1-5.7-1.1C56.9,25.8,56.1,25.8,49.7,25.8
		"/>
            <path d="M49.7,37.3c-6.7,0-12.1,5.4-12.1,12.1S43,61.5,49.7,61.5S61.8,56,61.8,49.3C61.8,42.7,56.4,37.3,49.7,37.3 M49.7,57.2
		c-4.3,0-7.8-3.5-7.8-7.8s3.5-7.8,7.8-7.8s7.8,3.5,7.8,7.8S54.1,57.2,49.7,57.2"/>
            <path d="M65.1,36.8c0,1.6-1.3,2.8-2.8,2.8c-1.6,0-2.8-1.3-2.8-2.8c0-1.6,1.3-2.8,2.8-2.8S65.1,35.2,65.1,36.8"/>
        </g>
    </symbol>
    <symbol id="vk" viewBox="0 0 99 99">
        <path d="M76.9,35.7c-0.7-0.5-3.4-0.5-6-0.5c-2.7,0.1-5.4,0.1-6,0.3s-1.9,3.3-3.5,6.6c-1.9,3.6-4.3,7.1-5.7,7.1
	c-1.9,0-1.5-5.9-1.3-10.4c0-2.9-0.4-3.8-0.9-4.1c-1-0.7-3.8-1.4-3.8-1.4s-8.4-0.6-9.6,3c1.6,0.2,4.4-0.3,3.3,10.9
	c-0.1,0.5-1.3,5.2-5.2-1.1c-1-1.6-4.7-10.9-6-11c-4.3-0.1-8.6-0.3-10.1,0.5c-1.4,0.8,1.9,7.2,7.4,15.8C34,58.5,38.7,64,46.9,65.3
	c1.6,0.2,5.6,0.3,6.9-0.3c0.8-0.4-0.2-6.5,2.7-7.1c1.3-0.2,6.3,6.4,8.2,7.1c1.2,0.5,3.7,0.7,6.3,0.5c2.8-0.1,6,0.3,6.3-1.6
	c0.7-4.2-8.5-9.7-8.7-12.3c-0.2-1.9,3.3-5.3,5.2-7.9C75.8,40.8,78.3,36.9,76.9,35.7L76.9,35.7z"/>
    </symbol>
    <symbol id="facebook"  viewBox="0 0 99 99">
        <path d="M53.3,39.4v-4.1c0-1.9,1.3-2.4,2.2-2.4s5.7,0,5.7,0v-8.7h-7.8c-8.7,0-10.6,6.4-10.6,10.6v4.6h-5v6.1v4h5.1
	c0,11.5,0,25.3,0,25.3H53c0,0,0-14,0-25.3h7.5l0.3-4l0.6-6.1L53.3,39.4z"/>
    </symbol>

    <symbol id="search" viewBox="0 0 71.3 71.1">
        <path d="M60.5,30.2C60.4,13.6,46.8,0,30.2,0C13.5,0,0,13.5,0,30.2s13.5,30.2,30.2,30.2c6.3,0,12.3-1.9,17.4-5.6l1.4-1l16.3,16.3
	c0.6,0.6,1.5,1,2.4,1c0.5,0,1.6-0.1,2.3-0.9l0.2-0.2c0.7-0.7,1.1-1.7,1.1-2.7c0-0.5-0.2-1.3-1-2l-0.1-0.1L53.9,49l1-1.4
	C58.5,42.4,60.5,36.3,60.5,30.2z M49.3,43.8L47,47l-3.3,2.3c-4.1,2.9-8.7,4.4-13.5,4.4c-13,0-23.5-10.5-23.5-23.5
	c0-13,10.5-23.5,23.5-23.5s23.5,10.5,23.5,23.5C53.7,35.1,52.2,39.6,49.3,43.8z"/>
    </symbol>

    <symbol id="arrow" viewBox="0 0 40 40">
        <g>
            <g>
                <g>
                    <g>
                        <path class="st0" d="M22.4,24.5c-0.1,0-0.3,0-0.4-0.1c-0.2-0.2-0.2-0.5,0-0.7l3.3-3.3c0.2-0.2,0.2-0.5,0-0.7L22,16.4
					c-0.2-0.2-0.2-0.5,0-0.7s0.5-0.2,0.7,0L26,19c0.6,0.6,0.6,1.5,0,2.1l-3.3,3.3C22.7,24.5,22.6,24.5,22.4,24.5z"/>
                    </g>
                    <g>
                        <path class="st0" d="M25.4,20.5h-12c-0.3,0-0.5-0.2-0.5-0.5s0.2-0.5,0.5-0.5h12c0.3,0,0.5,0.2,0.5,0.5S25.7,20.5,25.4,20.5z"/>
                    </g>
                </g>
            </g>
        </g>
    </symbol>

    <symbol id="armature" viewBox="0 0 151.7 96.1">
        <g>
            <path d="M149.1,0h-25.3c-0.2,0-0.5,0-0.7,0.1l-35.1,10h-2.2V7.6c0-4.2-3.4-7.6-7.6-7.6h-5.1c-4.2,0-7.6,3.4-7.6,7.6v2.5h-2.5
		c-1.4,0-2.5,1.1-2.5,2.5v10.1c0,1.4,1.1,2.5,2.5,2.5h2.5v10.1H48v5.1H37.9V48H0v35.4h37.9V91H48v5.1h55.6V91h10.1v-7.6h37.9V48
		h-37.9v-7.6h-10.1v-5.1H85.9V25.3h2.5c0.2,0,0.5,0,0.7-0.1l35.1-10h24.9c1.4,0,2.5-1.1,2.5-2.5V2.5C151.7,1.1,150.5,0,149.1,0z
		 M37.9,78.4H5.1V53.1h32.9V78.4z M48,85.9H43V45.5H48V85.9z M113.8,53.1h32.9v25.3h-32.9V53.1z M103.6,45.5h5.1v40.4h-5.1V45.5z
		 M70.8,7.6c0-1.4,1.1-2.5,2.5-2.5h5.1c1.4,0,2.5,1.1,2.5,2.5v2.5H70.8V7.6z M98.6,91H53.1V75.8h45.5V91z M98.6,70.8H53.1V60.7h45.5
		V70.8z M98.6,40.4v15.2H53.1V40.4H98.6z M70.8,35.4V25.3h10.1v10.1H70.8z M146.6,10.1h-22.8c-0.2,0-0.5,0-0.7,0.1l-35.1,10H65.7
		v-5.1h22.8c0.2,0,0.5,0,0.7-0.1l35.1-10h22.4V10.1z"/>
            <rect x="88.5" y="80.9" width="5.1" height="5.1"/>
            <rect x="78.4" y="80.9" width="5.1" height="5.1"/>
        </g>
    </symbol>
    <symbol id="pribor" viewBox="0 0 139.9 111.9">
        <g>
            <g transform="translate(-840.000000, -2333.000000)">
                <g transform="translate(840.000000, 2333.000000)">
                    <path d="M48.2,74.6c-2.1,0-3.8,1.7-3.8,3.8v25c0,2.1,1.7,3.8,3.8,3.8h52.9c2.1,0,3.9-1.7,3.9-3.8v-25c0-2.1-1.7-3.8-3.9-3.8H48.2
				z M101.1,111.9H48.2c-4.7,0-8.5-3.8-8.5-8.5v-25c0-4.7,3.8-8.5,8.5-8.5h52.9c4.7,0,8.5,3.8,8.5,8.5v25
				C109.6,108.1,105.8,111.9,101.1,111.9L101.1,111.9z"/>
                    <path d="M57.5,84c-2.1,0-3.8,1.7-3.8,3.8v6.3c0,2.1,1.7,3.8,3.8,3.8h34.3c2.1,0,3.9-1.7,3.9-3.8v-6.3c0-2.1-1.7-3.8-3.9-3.8H57.5
				z M91.8,102.6H57.5c-4.7,0-8.5-3.8-8.5-8.5v-6.3c0-4.7,3.8-8.5,8.5-8.5h34.3c4.7,0,8.5,3.8,8.5,8.5v6.3
				C100.3,98.8,96.5,102.6,91.8,102.6L91.8,102.6z"/>
                    <path d="M137.6,102.6h-30.3c-1.3,0-2.3-1-2.3-2.3V81.6c0-1.3,1-2.3,2.3-2.3h30.3c1.3,0,2.3,1,2.3,2.3c0,1.3-1,2.3-2.3,2.3h-28v14
				h28c1.3,0,2.3,1,2.3,2.3C139.9,101.6,138.9,102.6,137.6,102.6"/>
                    <path d="M42,102.6C18.8,102.6,0,84,0,61.2V2.3C0,1,1,0,2.3,0s2.3,1,2.3,2.3v58.9c0,19.5,15.5,35.5,35,36.7V84.4
				c-11.8-1.2-21-11.1-21-23.2V2.3C18.7,1,19.7,0,21,0c1.3,0,2.3,1,2.3,2.3v58.9c0,10.3,8.4,18.7,18.7,18.7c1.3,0,2.3,1,2.3,2.3
				v18.1C44.3,101.6,43.3,102.6,42,102.6"/>
                    <path d="M74.6,4.7C60.5,4.7,49,16.2,49,30.3S60.5,56,74.6,56s25.7-11.5,25.7-25.7S88.8,4.7,74.6,4.7 M74.6,60.6
				c-16.7,0-30.3-13.6-30.3-30.3S57.9,0,74.6,0s30.3,13.6,30.3,30.3S91.3,60.6,74.6,60.6"/>
                    <path d="M67.6,70h14V59.8c-4.6,1.1-9.4,1.1-14,0V70z M84,74.6H65.3c-1.3,0-2.3-1-2.3-2.3V56.7c0-0.8,0.4-1.5,1-1.9
				c0.6-0.4,1.4-0.6,2.1-0.3c5.6,2,11.5,2,17.1,0c0.7-0.3,1.5-0.1,2.1,0.3c0.6,0.4,1,1.1,1,1.9v15.6C86.3,73.6,85.2,74.6,84,74.6
				L84,74.6z"/>
                    <path d="M62,52.6c7.7,4.4,17.6,4.4,25.2,0c-3.1-3.8-7.7-6-12.6-6S65.1,48.9,62,52.6 M74.6,60.6c-6.2,0-12.2-1.9-17.3-5.4
				c-1-0.7-1.3-2.1-0.7-3.1C60.5,45.8,67.2,42,74.6,42c7.4,0,14.1,3.8,17.9,10.1c0.6,1.1,0.3,2.4-0.7,3.1
				C86.8,58.8,80.8,60.6,74.6,60.6"/>
                    <path d="M58.3,30.3c0,1.3-1,2.3-2.3,2.3s-2.3-1-2.3-2.3s1-2.3,2.3-2.3S58.3,29,58.3,30.3"/>
                    <path d="M95.6,30.3c0,1.3-1,2.3-2.3,2.3c-1.3,0-2.3-1-2.3-2.3s1-2.3,2.3-2.3C94.6,28,95.6,29,95.6,30.3"/>
                    <path d="M63,18.7c0,1.3-1,2.3-2.3,2.3s-2.3-1-2.3-2.3s1-2.3,2.3-2.3S63,17.4,63,18.7"/>
                    <path d="M77,11.7c0,1.3-1,2.3-2.3,2.3s-2.3-1-2.3-2.3s1-2.3,2.3-2.3S77,10.4,77,11.7"/>
                    <path d="M91,18.7c0,1.3-1,2.3-2.3,2.3s-2.3-1-2.3-2.3s1-2.3,2.3-2.3S91,17.4,91,18.7"/>
                    <path d="M74.6,37.3c-0.7,0-1.3-0.3-1.8-0.8L65,27.1c-0.8-1-0.7-2.5,0.3-3.3c1-0.8,2.5-0.7,3.3,0.3l7.8,9.4c0.8,1,0.7,2.5-0.3,3.3
				C75.7,37.1,75.2,37.3,74.6,37.3"/>
                    <path d="M60.6,93.3h-9.3c-1.3,0-2.3-1-2.3-2.3c0-1.3,1-2.3,2.3-2.3h9.3c1.3,0,2.3,1,2.3,2.3C63,92.2,61.9,93.3,60.6,93.3"/>
                    <path d="M98,93.3h-9.3c-1.3,0-2.3-1-2.3-2.3c0-1.3,1-2.3,2.3-2.3H98c1.3,0,2.3,1,2.3,2.3C100.3,92.2,99.2,93.3,98,93.3"/>
                </g>
            </g>
        </g>
    </symbol>
    <symbol id="izolation" viewBox="0 0 131.5 114">
        <g>
            <path d="M109.6,0C98.4,0,88.9,8.5,87.8,19.7H2.2c-1.2,0-2.2,1-2.2,2.2v89.9c0,1.2,1,2.2,2.2,2.2h107.4c12.1,0,21.9-9.8,21.9-21.9
		V19.7c0-0.3-0.1-0.7-0.3-1C129.7,8,120.5,0,109.6,0z M4.4,24.1h83.3v61.4c0,0,0,0,0,0.1c0,0.1,0,0.2,0,0.3c0,0.1,0,0.2,0.1,0.4
		c0,0.1,0,0.1,0.1,0.2c0,0.1,0.1,0.1,0.1,0.2c0.1,0.1,0.1,0.2,0.2,0.3c0,0.1,0.1,0.1,0.1,0.2c0.1,0.1,0.1,0.1,0.2,0.2
		c0.1,0.1,0.1,0.1,0.2,0.1l11,6.6c0.1,0,0.1,0.1,0.2,0.1c0.1,0,0.1,0.1,0.2,0.1c0.2,0.1,0.5,0.1,0.7,0.1l0,0c0.3,0,0.5-0.1,0.8-0.2
		c0.1,0,0.1,0,0.2-0.1c0.2-0.1,0.4-0.2,0.6-0.4c0,0,0,0,0-0.1c0.1-0.1,0.2-0.2,0.3-0.4c0,0,0-0.1,0.1-0.1c0.1-0.1,0.1-0.3,0.1-0.4
		c0-0.1,0.1-0.3,0.1-0.4c0-0.1,0-0.1,0-0.1c0-3.6,2.9-6.6,6.6-6.6c3.6,0,6.6,2.9,6.6,6.6c0,3-1.9,5.6-4.7,6.6H4.4V24.1z
		 M109.6,109.6H4.4V103h107.4c0.2,0,0.4,0,0.5-0.1c0.1,0,0.2-0.1,0.3-0.1l0.1,0c4.7-1.5,7.9-5.8,7.9-10.8c0-6-4.9-10.9-10.9-11
		c-4.7,0-8.9,3-10.4,7.5l-6.6-3.9c3.3-6.2,9.9-10.1,16.9-10.1c9.7,0,17.5,7.9,17.5,17.5S119.3,109.6,109.6,109.6z M127.2,79
		c-4.1-5.5-10.6-8.8-17.5-8.8c-6.7,0-13,2.8-17.5,7.7V21.9c0-9.7,7.9-17.5,17.5-17.5s17.5,7.9,17.5,17.5V79z"/>
            <rect x="17.5" y="32.9" width="4.4" height="4.4"/>
            <rect x="30.7" y="32.9" width="4.4" height="4.4"/>
            <rect x="43.8" y="32.9" width="4.4" height="4.4"/>
            <rect x="57" y="32.9" width="4.4" height="4.4"/>
            <rect x="70.2" y="32.9" width="4.4" height="4.4"/>
            <rect x="24.1" y="46" width="4.4" height="4.4"/>
            <rect x="37.3" y="46" width="4.4" height="4.4"/>
            <rect x="50.4" y="46" width="4.4" height="4.4"/>
            <rect x="63.6" y="46" width="4.4" height="4.4"/>
            <rect x="17.5" y="59.2" width="4.4" height="4.4"/>
            <rect x="30.7" y="59.2" width="4.4" height="4.4"/>
            <rect x="43.8" y="59.2" width="4.4" height="4.4"/>
            <rect x="57" y="59.2" width="4.4" height="4.4"/>
            <rect x="70.2" y="59.2" width="4.4" height="4.4"/>
            <rect x="24.1" y="72.3" width="4.4" height="4.4"/>
            <rect x="37.3" y="72.3" width="4.4" height="4.4"/>
            <rect x="50.4" y="72.3" width="4.4" height="4.4"/>
            <rect x="63.6" y="72.3" width="4.4" height="4.4"/>
            <rect x="17.5" y="85.5" width="4.4" height="4.4"/>
            <rect x="30.7" y="85.5" width="4.4" height="4.4"/>
            <rect x="43.8" y="85.5" width="4.4" height="4.4"/>
            <rect x="57" y="85.5" width="4.4" height="4.4"/>
            <rect x="70.2" y="85.5" width="4.4" height="4.4"/>
        </g>
    </symbol>
    <symbol id="kanalization" viewBox="0 0 112.3 102">
        <g>
            <path d="M10.4,102c1.4,0,2.5-1.1,2.5-2.5v-74l-4.9,2.3v71.8C7.9,100.9,9,102,10.4,102z"/>
            <path d="M101.9,102c1.4,0,2.5-1.1,2.5-2.5V27.7l-4.9-2.3v74C99.5,100.9,100.6,102,101.9,102z"/>
            <path d="M56.2,5.2l52.6,24.3c1.2,0.6,2.8,0,3.3-1.2c0.3-0.6,0.3-1.3,0.1-1.9c-0.2-0.6-0.7-1.1-1.3-1.4L57.2,0.2
		c-0.7-0.3-1.4-0.3-2.1,0L1.4,25.1c-0.6,0.3-1.1,0.8-1.3,1.4c-0.2,0.6-0.2,1.3,0.1,1.9c0.6,1.3,2.1,1.8,3.3,1.2L56.2,5.2z"/>
            <path d="M39.5,38c2.1,0,4-0.7,5.5-2c1.5,1.3,3.4,2,5.5,2s4-0.7,5.5-2c1.5,1.3,3.4,2,5.5,2s4-0.7,5.5-2c1.5,1.3,3.4,2,5.5,2
		c0,0,0.1,0,0.1,0v-3.9c0,0-0.1,0-0.1,0c-1.6,0-3-0.8-3.8-2.1c-0.4-0.6-1-0.9-1.6-0.9s-1.3,0.3-1.6,0.9c-0.8,1.3-2.3,2.1-3.8,2.1
		c-1.6,0-3-0.8-3.8-2.1c-0.4-0.6-1-0.9-1.6-0.9s-1.3,0.3-1.6,0.9c-0.8,1.3-2.3,2.1-3.8,2.1s-3-0.8-3.8-2.1c-0.4-0.6-1-0.9-1.6-0.9
		c-0.7,0-1.3,0.3-1.6,0.9c-0.8,1.3-2.3,2.1-3.8,2.1c0,0-0.1,0-0.1,0L39.5,38C39.4,38,39.5,38,39.5,38z"/>
            <path d="M83.6,82.5V67.4c0-4.2-3.4-7.5-7.5-7.5H62v-9.2h8.2c5.5,0,9.9-4.4,9.9-9.9V30.1c0-1.2-1-2.2-2.2-2.2s-2.2,1-2.2,2.2v10.7
		c0,3-2.5,5.5-5.5,5.5H59.8c-1.2,0-2.2,1-2.2,2.2v13.6c0,1.2,1,2.2,2.2,2.2h16.3c1.7,0,3.1,1.4,3.1,3.1v15.1c0,1.7-1.4,3.1-3.1,3.1
		H59.8c-1.2,0-2.2,1-2.2,2.2v12.3H62V90.1h14.1C80.2,90.1,83.6,86.7,83.6,82.5z"/>
            <path d="M57.4,82.4l16.3,0c1.2,0,2.2-1,2.2-2.2V69.8c0-1.2-1-2.2-2.2-2.2H57.4c-1.7,0-3.1-1.4-3.1-3.1v-16c0-1.2-1-2.2-2.2-2.2
		H41.7c-3,0-5.5-2.5-5.5-5.5V30.1c0-1.2-1-2.2-2.2-2.2s-2.2,1-2.2,2.2v10.7c0,5.5,4.4,9.9,9.9,9.9h8.2v13.8c0,4.2,3.4,7.5,7.5,7.5
		h14.1v6H57.4c-4.2,0-7.5,3.4-7.5,7.5v14.7h4.4V85.5C54.3,83.8,55.7,82.4,57.4,82.4z"/>
        </g>
    </symbol>
    <symbol id="kotli" viewBox="0 0 90.4 139">
        <g>
            <path d="M53.1,92.7c0,6.4,5.2,11.6,11.6,11.6s11.6-5.2,11.6-11.6s-5.2-11.6-11.6-11.6C58.3,81.1,53.1,86.3,53.1,92.7z M62.4,86.1
		v6.5H67v-6.5c3.6,1.3,5.5,5.3,4.2,8.9c-1.3,3.6-5.3,5.5-8.9,4.2c-3.6-1.3-5.5-5.3-4.2-8.9C58.8,88.4,60.4,86.8,62.4,86.1z"/>
            <path d="M25.5,104.3c6.4,0,11.6-5.2,11.6-11.6s-5.2-11.6-11.6-11.6s-11.6,5.2-11.6,11.6C13.9,99.1,19.1,104.2,25.5,104.3z
		 M25.5,85.7c2.9,0,5.5,1.9,6.5,4.6h-6.5V95H32c-1.3,3.6-5.3,5.5-8.9,4.2c-3.6-1.3-5.5-5.3-4.2-8.9C19.9,87.6,22.5,85.7,25.5,85.7z"
            />
            <rect x="16.2" y="64.9" width="4.6" height="4.6"/>
            <rect x="25.5" y="64.9" width="4.6" height="4.6"/>
            <path d="M48.1,40.2c-0.9-1-2.4-1-3.4-0.1c0,0,0,0-0.1,0.1c-1.3,1.4-7.5,8.6-7.5,13.1c0,5.1,4.1,9.3,9.3,9.3s9.3-4.1,9.3-9.3
		C55.6,48.8,49.3,41.6,48.1,40.2z M46.3,57.9c-2.6,0-4.6-2.1-4.6-4.6c0-1.5,2.2-4.9,4.6-8c2.5,3.1,4.6,6.6,4.6,8
		C51,55.8,48.9,57.9,46.3,57.9z"/>
            <path d="M30.5,31.1l3.9,2.6l2.3-3.5c1.9-2.9,1.9-6.6,0-9.5c-0.9-1.3-0.9-3.1,0-4.4l2.3-3.5l-3.9-2.6l-2.3,3.5
		c-1.9,2.9-1.9,6.6,0,9.5c0.9,1.3,0.9,3.1,0,4.4L30.5,31.1z"/>
            <path d="M42.1,31.1l3.9,2.6l2.3-3.5c1.9-2.9,1.9-6.6,0-9.5c-0.9-1.3-0.9-3.1,0-4.4l2.3-3.5l-3.9-2.6l-2.3,3.5
		c-1.9,2.9-1.9,6.6,0,9.5c0.9,1.3,0.9,3.1,0,4.4L42.1,31.1z"/>
            <path d="M53.7,31.1l3.9,2.6l2.3-3.5c1.9-2.9,1.9-6.6,0-9.5c-0.9-1.3-0.9-3.1,0-4.4l2.3-3.5l-3.9-2.6L56,13.8
		c-1.9,2.9-1.9,6.6,0,9.5c0.9,1.3,0.9,3.1,0,4.4L53.7,31.1z"/>
            <g>
                <path d="M90.4,134.4H76.5c-2.6,0-4.6-2.1-4.6-4.6v-7h2.3c1.3,0,2.3-1,2.3-2.3v-7H88c1.3,0,2.3-1,2.3-2.3v-3V2.3
			C90.4,1,89.3,0,88,0H2.3C1,0,0,1,0,2.3v108.9c0,1.3,1,2.3,2.3,2.3h11.6v7c0,1.3,1,2.3,2.3,2.3h2.3v7c0,2.6-2.1,4.6-4.6,4.6H0v4.6
			h13.9c5.1,0,9.3-4.1,9.3-9.3v-7h2.3c1.3,0,2.3-1,2.3-2.3v-7h34.8v7c0,1.3,1,2.3,2.3,2.3h2.3v7c0,5.1,4.1,9.3,9.3,9.3h13.9V134.4z
			 M23.2,118.2h-4.6v-4.6h4.6V118.2z M4.6,108.9V4.6h81.1v104.3H4.6z M67.2,118.2v-4.6h4.6v4.6H67.2z"/>
            </g>
        </g>
    </symbol>
    <symbol id="luk"  viewBox="0 0 120.6 124.7">
        <g>
            <path d="M118.6,24.1h-6v-4h2c1.1,0,2-0.9,2-2v-8c0-1.1-0.9-2-2-2h-2V2c0-1.1-0.9-2-2-2H90.5c-1.1,0-2,0.9-2,2v6h-2
		c-1.1,0-2,0.9-2,2v8c0,1.1,0.9,2,2,2h2v4h-6c-1.1,0-2,0.9-2,2v8c0,1.1,0.9,2,2,2h6v24.1c0,4.4-3.6,8-8,8s-8-3.6-8-8V32.2
		C72.4,14.4,57.9,0,40.2,0S8,14.4,8,32.2v24.1H2c-1.1,0-2,0.9-2,2v8c0,1.1,0.9,2,2,2h6v4H6c-1.1,0-2,0.9-2,2v8c0,1.1,0.9,2,2,2h2v6
		c0,1.1,0.9,2,2,2h20.1c1.1,0,2-0.9,2-2v-6h2c1.1,0,2-0.9,2-2v-8c0-1.1-0.9-2-2-2h-2v-4h6c1.1,0,2-0.9,2-2v-8c0-1.1-0.9-2-2-2h-6
		V32.2c0-4.4,3.6-8,8-8s8,3.6,8,8v28.1c0,17.7,14.4,32.2,32.2,32.2s32.2-14.4,32.2-32.2V36.2h6c1.1,0,2-0.9,2-2v-8
		C120.6,25,119.7,24.1,118.6,24.1z M92.5,4h16.1v4H92.5V4z M88.5,12.1h24.1v4H88.5V12.1z M92.5,20.1h16.1v4H92.5V20.1z M28.1,88.5
		H12.1v-4h16.1V88.5z M32.2,80.4H8v-4h24.1V80.4z M28.1,72.4H12.1v-4h16.1V72.4z M36.2,64.3H4v-4h32.2V64.3z M108.6,60.3
		c0,15.5-12.6,28.1-28.1,28.1S52.3,75.8,52.3,60.3V32.2c0-6.7-5.4-12.1-12.1-12.1s-12.1,5.4-12.1,12.1v24.1H12.1V32.2
		C12.1,16.6,24.7,4,40.2,4s28.1,12.6,28.1,28.1v28.1c0,6.7,5.4,12.1,12.1,12.1S92.5,67,92.5,60.3V36.2h16.1V60.3z M116.6,32.2H84.4
		v-4h32.2V32.2z"/>
            <path d="M21.8,97.4c-0.7-1.1-2.6-1.1-3.3,0l-6,9c-1.5,2.3-2.4,5-2.4,7.8c0,5.3,4,9.9,9.1,10.4c0.3,0,0.6,0,1,0
		c2.5,0,4.9-0.9,6.8-2.6c2.1-1.9,3.3-4.6,3.3-7.4v-0.4c0-2.8-0.8-5.5-2.4-7.8L21.8,97.4z M26.1,114.6c0,1.7-0.7,3.3-2,4.5
		c-1.3,1.2-2.9,1.7-4.7,1.5c-3-0.3-5.4-3.1-5.4-6.4c0-2,0.6-3.9,1.7-5.6l4.3-6.5l4.3,6.5c1.1,1.7,1.7,3.6,1.7,5.6V114.6z"/>
        </g>
    </symbol>

    <symbol id="hit" viewBox="0 0 76.4 76.4">
        <path d="M76.1,28.5c-0.7-2.1-2.5-3.7-4.7-4l-19.4-3l-8.4-18c-0.7-1.4-1.9-2.5-3.3-3.1c-1.5-0.5-3.1-0.5-4.5,0.2
	c-1.3,0.6-2.3,1.6-2.9,2.9l-8.4,18L5,24.4c-1.6,0.3-3,1.1-3.9,2.4c-0.9,1.3-1.3,2.9-1.1,4.5c0.2,1.2,0.8,2.3,1.6,3.2l14.2,14.6
	l-3.3,20.3c-0.3,1.6,0.1,3.1,1,4.4c0.9,1.3,2.3,2.2,3.9,2.4c0.3,0.1,0.7,0.1,1,0.1c1,0,2-0.3,2.9-0.7l16.8-9.4l16.9,9.4
	c0.9,0.5,1.9,0.7,2.9,0.7c3.3,0,6-2.7,5.9-6c0-0.3,0-0.7-0.1-1l-3.3-20.3l14.2-14.6C76.3,32.9,76.8,30.6,76.1,28.5z M22.7,49.7
	c0.3-1.8-0.3-3.7-1.6-5L7.9,30.9L26,28.1c1.9-0.3,3.5-1.5,4.4-3.3L38.2,8L46,24.8c0.8,1.8,2.5,3,4.4,3.3l18.1,2.8L55.3,44.7
	c-1.3,1.3-1.9,3.2-1.6,5l3.1,19L41,59.9c-1.8-1-3.9-1-5.6,0l-15.7,8.8L22.7,49.7z"/>
    </symbol>
    <symbol id="hot" viewBox="0 0 60 75" >
        <path d="M51.1,26.3c-1.7-1.4-6.1-4.5-6.5-4.8c-5.2-4.6-7.2-8.9-5.2-16.9c0.5-2-0.8-4-2.8-4.5c-0.8-0.2-1.7-0.1-2.5,0.3
	C21.8,6.4,16.8,19,17.8,30.2c-1.6-2.4-2.5-5.1-2.7-8c-0.2-2.1-2-3.6-4.1-3.4c-1.1,0.1-2.2,0.8-2.8,1.7C2,30.1,0,35.8,0,45
	c0,16.6,13.4,30,30,30s30-13.4,30-30C60,37,56.8,31.1,51.1,26.3z M30,67.6c-12.4,0-22.5-10-22.5-22.4v-0.1c0-7.6,1.6-10.3,2.7-13
	c2.8,5.5,7.5,9.1,12.3,9.1c2.1,0,3.8-1.7,3.8-3.7c0-0.3,0-0.5-0.1-0.8c-3.2-15.1,2.5-22.7,5-25.1c0.4,6.3,3.5,11,8.4,15.5
	c0.8,0.7,5.4,3.9,6.6,5c4.1,3.5,6.3,7.4,6.3,13c0.1,12.4-9.9,22.5-22.2,22.5C30.2,67.6,30.1,67.6,30,67.6z"/>
    </symbol>

<!--    background-image: linear-gradient(-225deg, #7282bc 0%, #7abfcc 100%);-->
</svg>